<?xml version="1.0" encoding="utf-8" ?>
<svg baseProfile="full" height="100%" version="1.1" viewBox="-500 -350 1500 1400" width="100%" xmlns="http://www.w3.org/2000/svg" xmlns:ev="http://www.w3.org/2001/xml-events" xmlns:xlink="http://www.w3.org/1999/xlink"><defs><marker id="id1" markerHeight="10" markerWidth="10" orient="auto" refX="0" refY="5"><path d="M 0 0 L 10 5 L 0 10 z" fill="blue" stroke="black" /></marker><marker id="id2" markerHeight="10" markerWidth="10" orient="auto" refX="0" refY="5"><path d="M 0 0 L 10 5 L 0 10 z" fill="blue" stroke="black" /></marker><marker id="id3" markerHeight="30" markerWidth="30" orient="auto" refX="8" refY="3"><path d=" M0,0 L3,3 L0,6 L8,3 L0,0" fill="black" /></marker><marker id="id4" markerHeight="20" markerWidth="30" orient="auto" refX="0" refY="3"><path d=" M0,3 L8,6 L5,3 L8,0 L0,3" fill="black" /></marker><marker id="id5" markerHeight="30" markerWidth="30" orient="auto" refX="8" refY="3"><path d=" M0,0 L3,3 L0,6 L8,3 L0,0" fill="black" /></marker><marker id="id6" markerHeight="20" markerWidth="30" orient="auto" refX="0" refY="3"><path d=" M0,3 L8,6 L5,3 L8,0 L0,3" fill="black" /></marker><marker id="id7" markerHeight="30" markerWidth="30" orient="auto" refX="8" refY="3"><path d=" M0,0 L3,3 L0,6 L8,3 L0,0" fill="black" /></marker><marker id="id8" markerHeight="20" markerWidth="30" orient="auto" refX="0" refY="3"><path d=" M0,3 L8,6 L5,3 L8,0 L0,3" fill="black" /></marker><marker id="id9" markerHeight="30" markerWidth="30" orient="auto" refX="8" refY="3"><path d=" M0,0 L3,3 L0,6 L8,3 L0,0" fill="black" /></marker><marker id="id10" markerHeight="20" markerWidth="30" orient="auto" refX="0" refY="3"><path d=" M0,3 L8,6 L5,3 L8,0 L0,3" fill="black" /></marker><marker id="id11" markerHeight="30" markerWidth="30" orient="auto" refX="8" refY="3"><path d=" M0,0 L3,3 L0,6 L8,3 L0,0" fill="black" /></marker><marker id="id12" markerHeight="20" markerWidth="30" orient="auto" refX="0" refY="3"><path d=" M0,3 L8,6 L5,3 L8,0 L0,3" fill="black" /></marker><marker id="id13" markerHeight="30" markerWidth="30" orient="auto" refX="8" refY="3"><path d=" M0,0 L3,3 L0,6 L8,3 L0,0" fill="black" /></marker><marker id="id14" markerHeight="20" markerWidth="30" orient="auto" refX="0" refY="3"><path d=" M0,3 L8,6 L5,3 L8,0 L0,3" fill="black" /></marker><marker id="id15" markerHeight="30" markerWidth="30" orient="auto" refX="8" refY="3"><path d=" M0,0 L3,3 L0,6 L8,3 L0,0" fill="black" /></marker><marker id="id16" markerHeight="20" markerWidth="30" orient="auto" refX="0" refY="3"><path d=" M0,3 L8,6 L5,3 L8,0 L0,3" fill="black" /></marker><marker id="id17" markerHeight="30" markerWidth="30" orient="auto" refX="8" refY="3"><path d=" M0,0 L3,3 L0,6 L8,3 L0,0" fill="black" /></marker><marker id="id18" markerHeight="20" markerWidth="30" orient="auto" refX="0" refY="3"><path d=" M0,3 L8,6 L5,3 L8,0 L0,3" fill="black" /></marker><marker id="id19" markerHeight="30" markerWidth="30" orient="auto" refX="8" refY="3"><path d=" M0,0 L3,3 L0,6 L8,3 L0,0" fill="black" /></marker><marker id="id20" markerHeight="20" markerWidth="30" orient="auto" refX="0" refY="3"><path d=" M0,3 L8,6 L5,3 L8,0 L0,3" fill="black" /></marker><marker id="id21" markerHeight="20" markerWidth="30" orient="auto" refX="0" refY="3"><path d=" M0,3 L8,6 L5,3 L8,0 L0,3" fill="black" /></marker><marker id="id22" markerHeight="20" markerWidth="30" orient="auto" refX="0" refY="3"><path d=" M0,3 L8,6 L5,3 L8,0 L0,3" fill="black" /></marker><marker id="id23" markerHeight="20" markerWidth="30" orient="auto" refX="0" refY="3"><path d=" M0,3 L8,6 L5,3 L8,0 L0,3" fill="black" /></marker><marker id="id24" markerHeight="20" markerWidth="30" orient="auto" refX="0" refY="3"><path d=" M0,3 L8,6 L5,3 L8,0 L0,3" fill="black" /></marker><marker id="id25" markerHeight="20" markerWidth="30" orient="auto" refX="0" refY="3"><path d=" M0,3 L8,6 L5,3 L8,0 L0,3" fill="black" /></marker></defs><line marker-end="url(#id1)" stroke="black" stroke-linecap="square" stroke-width="2.5" x1="0" x2="0" y1="-320" y2="-270" /><text fill="black" font-family="sans-serif" font-size="52" x="-10" y="-190">A</text><line marker-end="url(#id2)" stroke="black" stroke-linecap="square" stroke-width="2.5" x1="470.6" x2="470.6" y1="-320.0" y2="-270.0" /><text fill="black" font-family="sans-serif" font-size="52" x="460.6" y="-190.0">A</text><line stroke="#666666" stroke-linecap="square" stroke-width="1.0" x1="0" x2="470.6" y1="-320" y2="-320.0" /><polyline fill="none" points="0,0 190,0 190.0,19.3 100.6,19.3 100.6,530.7 190.0,530.7 190.0,550.0 0.0,550.0 0.0,530.7 89.4,530.7 89.4,19.3 0.0,19.3 0,0" stroke="blue" stroke-width="2.5" /><polyline fill="none" points="200.0,19.3 200,0 470.6,0.0 470.6,500.0 120.6,500.0 120.6,482.8 120.6,337.3" stroke="blue" stroke-width="2.5" /><line stroke="red" stroke-dasharray="5 5" stroke-linecap="square" stroke-width="2.5" x1="120.6" x2="120.6" y1="37.3" y2="337.3" /><line stroke="blue" stroke-linecap="square" stroke-width="2.5" x1="200.0" x2="470.6" y1="17.2" y2="17.2" /><line stroke="blue" stroke-linecap="square" stroke-width="2.5" x1="120.6" x2="470.6" y1="482.8" y2="482.8" /><rect fill="none" height="300" stroke="blue" stroke-width="2.5" width="10" x="100.6" y="37.3" /><rect fill="none" height="300" stroke="blue" stroke-width="2.5" width="90" x="110.6" y="37.3" /><path d="M 200.0 19.3 A 18.0 18.0 , 0 , 0 , 1 , 182.0 37.3" fill="none" stroke="blue" stroke-width="2.5" /><circle cx="170.6" cy="67.3" fill="none" r="8" stroke="blue" stroke-width="1.5" /><line stroke="red" stroke-linecap="square" stroke-width="2.0" x1="158.6" x2="182.6" y1="67.3" y2="67.3" /><line stroke="red" stroke-linecap="square" stroke-width="2.0" x1="170.6" x2="170.6" y1="55.3" y2="79.3" /><circle cx="170.6" cy="107.3" fill="none" r="8" stroke="blue" stroke-width="1.5" /><line stroke="red" stroke-linecap="square" stroke-width="2.0" x1="158.6" x2="182.6" y1="107.3" y2="107.3" /><line stroke="red" stroke-linecap="square" stroke-width="2.0" x1="170.6" x2="170.6" y1="95.3" y2="119.3" /><circle cx="170.6" cy="147.3" fill="none" r="8" stroke="blue" stroke-width="1.5" /><line stroke="red" stroke-linecap="square" stroke-width="2.0" x1="158.6" x2="182.6" y1="147.3" y2="147.3" /><line stroke="red" stroke-linecap="square" stroke-width="2.0" x1="170.6" x2="170.6" y1="135.3" y2="159.3" /><circle cx="170.6" cy="187.3" fill="none" r="8" stroke="blue" stroke-width="1.5" /><line stroke="red" stroke-linecap="square" stroke-width="2.0" x1="158.6" x2="182.6" y1="187.3" y2="187.3" /><line stroke="red" stroke-linecap="square" stroke-width="2.0" x1="170.6" x2="170.6" y1="175.3" y2="199.3" /><circle cx="170.6" cy="227.3" fill="none" r="8" stroke="blue" stroke-width="1.5" /><line stroke="red" stroke-linecap="square" stroke-width="2.0" x1="158.6" x2="182.6" y1="227.3" y2="227.3" /><line stroke="red" stroke-linecap="square" stroke-width="2.0" x1="170.6" x2="170.6" y1="215.3" y2="239.3" /><circle cx="170.6" cy="267.3" fill="none" r="8" stroke="blue" stroke-width="1.5" /><line stroke="red" stroke-linecap="square" stroke-width="2.0" x1="158.6" x2="182.6" y1="267.3" y2="267.3" /><line stroke="red" stroke-linecap="square" stroke-width="2.0" x1="170.6" x2="170.6" y1="255.3" y2="279.3" /><circle cx="170.6" cy="307.3" fill="none" r="8" stroke="blue" stroke-width="1.5" /><line stroke="red" stroke-linecap="square" stroke-width="2.0" x1="158.6" x2="182.6" y1="307.3" y2="307.3" /><line stroke="red" stroke-linecap="square" stroke-width="2.0" x1="170.6" x2="170.6" y1="295.3" y2="319.3" /><rect fill="black" height="16" stroke="black" stroke-width="2.0" width="21.2" x="89.4" y="79.3" /><line stroke="black" stroke-linecap="square" stroke-width="2.0" x1="79.4" x2="128.7" y1="87.3" y2="87.3" /><rect fill="black" height="16" stroke="black" stroke-width="2.0" width="21.2" x="89.4" y="119.3" /><line stroke="black" stroke-linecap="square" stroke-width="2.0" x1="79.4" x2="128.7" y1="127.3" y2="127.3" /><rect fill="black" height="16" stroke="black" stroke-width="2.0" width="21.2" x="89.4" y="159.3" /><line stroke="black" stroke-linecap="square" stroke-width="2.0" x1="79.4" x2="128.7" y1="167.3" y2="167.3" /><rect fill="black" height="16" stroke="black" stroke-width="2.0" width="21.2" x="89.4" y="199.3" /><line stroke="black" stroke-linecap="square" stroke-width="2.0" x1="79.4" x2="128.7" y1="207.3" y2="207.3" /><rect fill="black" height="16" stroke="black" stroke-width="2.0" width="21.2" x="89.4" y="239.3" /><line stroke="black" stroke-linecap="square" stroke-width="2.0" x1="79.4" x2="128.7" y1="247.3" y2="247.3" /><rect fill="black" height="16" stroke="black" stroke-width="2.0" width="21.2" x="89.4" y="279.3" /><line stroke="black" stroke-linecap="square" stroke-width="2.0" x1="79.4" x2="128.7" y1="287.3" y2="287.3" /><line stroke="#D8D8D8" stroke-linecap="square" stroke-opacity="0.7" stroke-width="2.5" x1="200.6" x2="700.6" y1="37.3" y2="37.3" /><line stroke="#D8D8D8" stroke-linecap="square" stroke-opacity="0.7" stroke-width="2.5" x1="200.6" x2="700.6" y1="337.3" y2="337.3" /><line marker-end="url(#id3)" marker-start="url(#id4)" stroke="black" stroke-linecap="square" stroke-width="2.5" x1="550.6" x2="550.6" y1="37.3" y2="337.3" /><text fill="black" font-family="sans-serif" font-size="28" x="560.6" y="187.3">300</text><line stroke="black" stroke-linecap="square" stroke-opacity="1.0" stroke-width="2.5" x1="560.6" x2="540.6" y1="37.3" y2="37.3" /><line stroke="black" stroke-linecap="square" stroke-opacity="1.0" stroke-width="2.5" x1="560.6" x2="540.6" y1="337.3" y2="337.3" /><line stroke="#D8D8D8" stroke-linecap="square" stroke-opacity="0.7" stroke-width="2.5" x1="170.6" x2="670.6" y1="67.3" y2="67.3" /><line stroke="#D8D8D8" stroke-linecap="square" stroke-opacity="0.7" stroke-width="2.5" x1="170.6" x2="670.6" y1="307.3" y2="307.3" /><line marker-end="url(#id5)" marker-start="url(#id6)" stroke="black" stroke-linecap="square" stroke-width="2.5" x1="670.6" x2="670.6" y1="67.3" y2="307.3" /><text fill="black" font-family="sans-serif" font-size="28" x="680.6" y="187.3">6@40 c/c</text><line stroke="black" stroke-linecap="square" stroke-opacity="1.0" stroke-width="2.5" x1="680.6" x2="660.6" y1="67.3" y2="67.3" /><line stroke="black" stroke-linecap="square" stroke-opacity="1.0" stroke-width="2.5" x1="680.6" x2="660.6" y1="307.3" y2="307.3" /><line marker-end="url(#id7)" marker-start="url(#id8)" stroke="black" stroke-linecap="square" stroke-width="2.5" x1="670.6" x2="670.6" y1="67.3" y2="37.3" /><text fill="black" font-family="sans-serif" font-size="28" x="680.6" y="52.3">30</text><line stroke="black" stroke-linecap="square" stroke-opacity="1.0" stroke-width="2.5" x1="680.6" x2="660.6" y1="67.3" y2="67.3" /><line stroke="black" stroke-linecap="square" stroke-opacity="1.0" stroke-width="2.5" x1="680.6" x2="660.6" y1="37.3" y2="37.3" /><line marker-end="url(#id9)" marker-start="url(#id10)" stroke="black" stroke-linecap="square" stroke-width="2.5" x1="670.6" x2="670.6" y1="307.3" y2="337.3" /><text fill="black" font-family="sans-serif" font-size="28" x="680.6" y="322.3">30</text><line stroke="black" stroke-linecap="square" stroke-opacity="1.0" stroke-width="2.5" x1="680.6" x2="660.6" y1="307.3" y2="307.3" /><line stroke="black" stroke-linecap="square" stroke-opacity="1.0" stroke-width="2.5" x1="680.6" x2="660.6" y1="337.3" y2="337.3" /><line stroke="#D8D8D8" stroke-linecap="square" stroke-opacity="0.7" stroke-width="2.5" x1="170.6" x2="170.6" y1="37.3" y2="-180.0" /><line stroke="#D8D8D8" stroke-linecap="square" stroke-opacity="0.7" stroke-width="2.5" x1="200.6" x2="200.6" y1="37.3" y2="-180.0" /><line marker-end="url(#id11)" marker-start="url(#id12)" stroke="black" stroke-linecap="square" stroke-width="2.5" x1="200.6" x2="170.6" y1="-180.0" y2="-180.0" /><text fill="black" font-family="sans-serif" font-size="28" x="185.6" y="-200.0">30</text><line stroke="black" stroke-linecap="square" stroke-opacity="1.0" stroke-width="2.5" x1="200.6" x2="200.6" y1="-190.0" y2="-170.0" /><line stroke="black" stroke-linecap="square" stroke-opacity="1.0" stroke-width="2.5" x1="170.6" x2="170.6" y1="-190.0" y2="-170.0" /><line stroke="#D8D8D8" stroke-linecap="square" stroke-opacity="0.7" stroke-width="2.5" x1="0" x2="-30" y1="0" y2="0" /><line stroke="#D8D8D8" stroke-linecap="square" stroke-opacity="0.7" stroke-width="2.5" x1="120.6" x2="-30.0" y1="37.3" y2="37.3" /><line marker-end="url(#id13)" marker-start="url(#id14)" stroke="black" stroke-linecap="square" stroke-width="2.5" x1="-30.0" x2="-30.0" y1="0.0" y2="37.3" /><text fill="black" font-family="sans-serif" font-size="28" x="-80.0" y="18.65">37</text><line stroke="black" stroke-linecap="square" stroke-opacity="1.0" stroke-width="2.5" x1="-40.0" x2="-20.0" y1="0.0" y2="0.0" /><line stroke="black" stroke-linecap="square" stroke-opacity="1.0" stroke-width="2.5" x1="-40.0" x2="-20.0" y1="37.3" y2="37.3" /><line stroke="#D8D8D8" stroke-linecap="square" stroke-opacity="0.7" stroke-width="2.5" x1="100.6" x2="-24.5" y1="37.3" y2="37.3" /><line stroke="#D8D8D8" stroke-linecap="square" stroke-opacity="0.7" stroke-width="2.5" x1="89.4" x2="-25.5" y1="87.3" y2="87.3" /><line marker-end="url(#id15)" marker-start="url(#id16)" stroke="black" stroke-linecap="square" stroke-width="2.5" x1="-25.5" x2="-25.5" y1="37.3" y2="87.3" /><text fill="black" font-family="sans-serif" font-size="28" x="-75.5" y="62.3">50</text><line stroke="black" stroke-linecap="square" stroke-opacity="1.0" stroke-width="2.5" x1="-35.5" x2="-15.5" y1="37.3" y2="37.3" /><line stroke="black" stroke-linecap="square" stroke-opacity="1.0" stroke-width="2.5" x1="-35.5" x2="-15.5" y1="87.3" y2="87.3" /><line stroke="#D8D8D8" stroke-linecap="square" stroke-opacity="0.7" stroke-width="2.5" x1="89.4" x2="-25.5" y1="287.3" y2="287.3" /><line marker-end="url(#id17)" marker-start="url(#id18)" stroke="black" stroke-linecap="square" stroke-width="2.5" x1="-25.5" x2="-25.5" y1="87.3" y2="287.3" /><text fill="black" font-family="sans-serif" font-size="28" x="-175.5" y="187.3">5@40 c/c</text><line stroke="black" stroke-linecap="square" stroke-opacity="1.0" stroke-width="2.5" x1="-35.5" x2="-15.5" y1="87.3" y2="87.3" /><line stroke="black" stroke-linecap="square" stroke-opacity="1.0" stroke-width="2.5" x1="-35.5" x2="-15.5" y1="287.3" y2="287.3" /><line stroke="#D8D8D8" stroke-linecap="square" stroke-opacity="0.7" stroke-width="2.5" x1="100.6" x2="-24.5" y1="337.3" y2="337.3" /><line marker-end="url(#id19)" marker-start="url(#id20)" stroke="black" stroke-linecap="square" stroke-width="2.5" x1="-25.5" x2="-25.5" y1="337.3" y2="287.3" /><text fill="black" font-family="sans-serif" font-size="28" x="-75.5" y="312.3">50</text><line stroke="black" stroke-linecap="square" stroke-opacity="1.0" stroke-width="2.5" x1="-35.5" x2="-15.5" y1="337.3" y2="337.3" /><line stroke="black" stroke-linecap="square" stroke-opacity="1.0" stroke-width="2.5" x1="-35.5" x2="-15.5" y1="287.3" y2="287.3" /><polyline fill="none" marker-start="url(#id21)" points="470.6,500.0 557.202540378,550.0 765.202540378,550.0" stroke="black" stroke-width="2.5" /><text fill="black" font-family="sans-serif" font-size="28" x="578.002540378" y="532.0">Beam ISMB 500</text><text fill="black" font-family="sans-serif" font-size="28" x="578.002540378" y="568.0" /><polyline fill="none" marker-start="url(#id22)" points="0,0 -100.0,-100.0 -308.0,-100.0" stroke="black" stroke-width="2.5" /><text fill="black" font-family="sans-serif" font-size="28" x="-287.2" y="-118.0">Beam ISMB 550</text><text fill="black" font-family="sans-serif" font-size="28" x="-328.8" y="-82.0" /><polyline fill="none" marker-start="url(#id23)" points="170.6,67.3 432.6,-194.7 816.6,-194.7" stroke="black" stroke-width="2.5" /><text fill="black" font-family="sans-serif" font-size="28" x="471.0" y="-212.7">7 nos 16Ø holes</text><text fill="black" font-family="sans-serif" font-size="28" x="471.0" y="-161.7">for M16bolts(grade 10.8)</text><polyline fill="none" marker-start="url(#id24)" points="89.4,287.3 31.664973081,387.3 -352.335026919,387.3" stroke="black" stroke-width="2.5" /><text fill="black" font-family="sans-serif" font-size="28" x="-313.935026919" y="369.3">12 nos 16Ø holes</text><text fill="black" font-family="sans-serif" font-size="28" x="-390.735026919" y="405.3">for M16bolts(grade 10.8)</text><polyline fill="none" marker-start="url(#id25)" points="200.6,337.3 270.990252852,600.0 494.990252852,600.0" stroke="black" stroke-width="2.5" /><text fill="black" font-family="sans-serif" font-size="28" x="293.390252852" y="582.0">ISA.100X100X10</text><text fill="black" font-family="sans-serif" font-size="28" x="293.390252852" y="618.0" /><text fill="black" font-family="sans-serif" font-size="30" x="50" y="1040">Front view (Sec C-C)</text><text fill="black" font-family="sans-serif" font-size="30" x="400" y="1040">(All distances are in "mm")</text></svg>