<?xml version="1.0" encoding="utf-8" ?>
<svg baseProfile="full" height="100%" version="1.1" viewBox="-500 -400 1500 1400" width="100%" xmlns="http://www.w3.org/2000/svg" xmlns:ev="http://www.w3.org/2001/xml-events" xmlns:xlink="http://www.w3.org/1999/xlink"><defs><marker id="id26" markerHeight="30" markerWidth="30" orient="auto" refX="8" refY="3"><path d=" M0,0 L3,3 L0,6 L8,3 L0,0" fill="black" /></marker><marker id="id27" markerHeight="20" markerWidth="30" orient="auto" refX="0" refY="3"><path d=" M0,3 L8,6 L5,3 L8,0 L0,3" fill="black" /></marker><marker id="id28" markerHeight="30" markerWidth="30" orient="auto" refX="8" refY="3"><path d=" M0,0 L3,3 L0,6 L8,3 L0,0" fill="black" /></marker><marker id="id29" markerHeight="20" markerWidth="30" orient="auto" refX="0" refY="3"><path d=" M0,3 L8,6 L5,3 L8,0 L0,3" fill="black" /></marker><marker id="id30" markerHeight="30" markerWidth="30" orient="auto" refX="8" refY="3"><path d=" M0,0 L3,3 L0,6 L8,3 L0,0" fill="black" /></marker><marker id="id31" markerHeight="20" markerWidth="30" orient="auto" refX="0" refY="3"><path d=" M0,3 L8,6 L5,3 L8,0 L0,3" fill="black" /></marker><marker id="id32" markerHeight="30" markerWidth="30" orient="auto" refX="8" refY="3"><path d=" M0,0 L3,3 L0,6 L8,3 L0,0" fill="black" /></marker><marker id="id33" markerHeight="20" markerWidth="30" orient="auto" refX="0" refY="3"><path d=" M0,3 L8,6 L5,3 L8,0 L0,3" fill="black" /></marker><marker id="id34" markerHeight="30" markerWidth="30" orient="auto" refX="8" refY="3"><path d=" M0,0 L3,3 L0,6 L8,3 L0,0" fill="black" /></marker><marker id="id35" markerHeight="20" markerWidth="30" orient="auto" refX="0" refY="3"><path d=" M0,3 L8,6 L5,3 L8,0 L0,3" fill="black" /></marker><marker id="id36" markerHeight="30" markerWidth="30" orient="auto" refX="8" refY="3"><path d=" M0,0 L3,3 L0,6 L8,3 L0,0" fill="black" /></marker><marker id="id37" markerHeight="20" markerWidth="30" orient="auto" refX="0" refY="3"><path d=" M0,3 L8,6 L5,3 L8,0 L0,3" fill="black" /></marker><marker id="id38" markerHeight="30" markerWidth="30" orient="auto" refX="8" refY="3"><path d=" M0,0 L3,3 L0,6 L8,3 L0,0" fill="black" /></marker><marker id="id39" markerHeight="20" markerWidth="30" orient="auto" refX="0" refY="3"><path d=" M0,3 L8,6 L5,3 L8,0 L0,3" fill="black" /></marker><marker id="id40" markerHeight="30" markerWidth="30" orient="auto" refX="8" refY="3"><path d=" M0,0 L3,3 L0,6 L8,3 L0,0" fill="black" /></marker><marker id="id41" markerHeight="20" markerWidth="30" orient="auto" refX="0" refY="3"><path d=" M0,3 L8,6 L5,3 L8,0 L0,3" fill="black" /></marker><marker id="id42" markerHeight="30" markerWidth="30" orient="auto" refX="8" refY="3"><path d=" M0,0 L3,3 L0,6 L8,3 L0,0" fill="black" /></marker><marker id="id43" markerHeight="20" markerWidth="30" orient="auto" refX="0" refY="3"><path d=" M0,3 L8,6 L5,3 L8,0 L0,3" fill="black" /></marker><marker id="id44" markerHeight="30" markerWidth="30" orient="auto" refX="8" refY="3"><path d=" M0,0 L3,3 L0,6 L8,3 L0,0" fill="black" /></marker><marker id="id45" markerHeight="20" markerWidth="30" orient="auto" refX="0" refY="3"><path d=" M0,3 L8,6 L5,3 L8,0 L0,3" fill="black" /></marker><marker id="id46" markerHeight="30" markerWidth="30" orient="auto" refX="8" refY="3"><path d=" M0,0 L3,3 L0,6 L8,3 L0,0" fill="black" /></marker><marker id="id47" markerHeight="20" markerWidth="30" orient="auto" refX="0" refY="3"><path d=" M0,3 L8,6 L5,3 L8,0 L0,3" fill="black" /></marker><marker id="id48" markerHeight="20" markerWidth="30" orient="auto" refX="0" refY="3"><path d=" M0,3 L8,6 L5,3 L8,0 L0,3" fill="black" /></marker><marker id="id49" markerHeight="20" markerWidth="30" orient="auto" refX="0" refY="3"><path d=" M0,3 L8,6 L5,3 L8,0 L0,3" fill="black" /></marker><marker id="id50" markerHeight="20" markerWidth="30" orient="auto" refX="0" refY="3"><path d=" M0,3 L8,6 L5,3 L8,0 L0,3" fill="black" /></marker><marker id="id51" markerHeight="20" markerWidth="30" orient="auto" refX="0" refY="3"><path d=" M0,3 L8,6 L5,3 L8,0 L0,3" fill="black" /></marker><marker id="id52" markerHeight="20" markerWidth="30" orient="auto" refX="0" refY="3"><path d=" M0,3 L8,6 L5,3 L8,0 L0,3" fill="black" /></marker></defs><polyline fill="none" points="0,0 380,0 380.0,550.0 0.0,550.0 0,0" stroke="blue" stroke-width="2.5" /><line stroke="blue" stroke-linecap="square" stroke-width="2.5" x1="0.0" x2="380.0" y1="530.7" y2="530.7" /><line stroke="blue" stroke-linecap="square" stroke-width="2.5" x1="0.0" x2="184.9" y1="19.3" y2="19.3" /><line stroke="blue" stroke-linecap="square" stroke-width="2.5" x1="195.1" x2="380.0" y1="19.3" y2="19.3" /><line stroke="red" stroke-dasharray="5 5" stroke-linecap="square" stroke-width="2.5" x1="184.9" x2="195.1" y1="19.3" y2="19.3" /><polyline fill="none" points="280,0 280.0,17.2 195.1,17.2 195.1,482.8 280.0,482.8 280.0,500.0 100.0,500.0 100.0,482.8 184.9,482.8 184.9,17.2 100.0,17.2 100,0" stroke="blue" stroke-width="2.5" /><rect fill="none" height="300" stroke="blue" stroke-width="2.5" width="10" x="195.1" y="37.3" /><rect fill="none" height="300" stroke="blue" stroke-width="2.5" width="90" x="205.1" y="37.3" /><rect fill="none" height="300" stroke="blue" stroke-width="2.5" width="10" x="174.9" y="37.3" /><rect fill="none" height="300" stroke="blue" stroke-width="2.5" width="90" x="84.9" y="37.3" /><rect fill="black" height="16" stroke="none" stroke-width="2.5" width="30.2" x="174.9" y="59.3" /><line stroke="black" stroke-linecap="square" stroke-width="1.5" x1="169.9" x2="210.1" y1="67.3" y2="67.3" /><rect fill="black" height="16" stroke="none" stroke-width="2.5" width="30.2" x="174.9" y="99.3" /><line stroke="black" stroke-linecap="square" stroke-width="1.5" x1="169.9" x2="210.1" y1="107.3" y2="107.3" /><rect fill="black" height="16" stroke="none" stroke-width="2.5" width="30.2" x="174.9" y="139.3" /><line stroke="black" stroke-linecap="square" stroke-width="1.5" x1="169.9" x2="210.1" y1="147.3" y2="147.3" /><rect fill="black" height="16" stroke="none" stroke-width="2.5" width="30.2" x="174.9" y="179.3" /><line stroke="black" stroke-linecap="square" stroke-width="1.5" x1="169.9" x2="210.1" y1="187.3" y2="187.3" /><rect fill="black" height="16" stroke="none" stroke-width="2.5" width="30.2" x="174.9" y="219.3" /><line stroke="black" stroke-linecap="square" stroke-width="1.5" x1="169.9" x2="210.1" y1="227.3" y2="227.3" /><rect fill="black" height="16" stroke="none" stroke-width="2.5" width="30.2" x="174.9" y="259.3" /><line stroke="black" stroke-linecap="square" stroke-width="1.5" x1="169.9" x2="210.1" y1="267.3" y2="267.3" /><rect fill="black" height="16" stroke="none" stroke-width="2.5" width="30.2" x="174.9" y="299.3" /><line stroke="black" stroke-linecap="square" stroke-width="1.5" x1="169.9" x2="210.1" y1="307.3" y2="307.3" /><circle cx="120.0" cy="87.3" fill="none" r="8" stroke="blue" stroke-width="1.5" /><line stroke="red" stroke-dasharray="10 5 1 5" stroke-linecap="square" stroke-width="1.5" x1="132.0" x2="108.0" y1="87.3" y2="87.3" /><line stroke="red" stroke-dasharray="10 5 1 5" stroke-linecap="square" stroke-width="1.5" x1="120.0" x2="120.0" y1="99.3" y2="75.3" /><circle cx="260.0" cy="87.3" fill="none" r="8" stroke="blue" stroke-width="1.5" /><line stroke="red" stroke-dasharray="10 5 1 5" stroke-linecap="square" stroke-width="1.5" x1="272.0" x2="248.0" y1="87.3" y2="87.3" /><line stroke="red" stroke-dasharray="10 5 1 5" stroke-linecap="square" stroke-width="1.5" x1="260.0" x2="260.0" y1="99.3" y2="75.3" /><circle cx="120.0" cy="127.3" fill="none" r="8" stroke="blue" stroke-width="1.5" /><line stroke="red" stroke-dasharray="10 5 1 5" stroke-linecap="square" stroke-width="1.5" x1="132.0" x2="108.0" y1="127.3" y2="127.3" /><line stroke="red" stroke-dasharray="10 5 1 5" stroke-linecap="square" stroke-width="1.5" x1="120.0" x2="120.0" y1="139.3" y2="115.3" /><circle cx="260.0" cy="127.3" fill="none" r="8" stroke="blue" stroke-width="1.5" /><line stroke="red" stroke-dasharray="10 5 1 5" stroke-linecap="square" stroke-width="1.5" x1="272.0" x2="248.0" y1="127.3" y2="127.3" /><line stroke="red" stroke-dasharray="10 5 1 5" stroke-linecap="square" stroke-width="1.5" x1="260.0" x2="260.0" y1="139.3" y2="115.3" /><circle cx="120.0" cy="167.3" fill="none" r="8" stroke="blue" stroke-width="1.5" /><line stroke="red" stroke-dasharray="10 5 1 5" stroke-linecap="square" stroke-width="1.5" x1="132.0" x2="108.0" y1="167.3" y2="167.3" /><line stroke="red" stroke-dasharray="10 5 1 5" stroke-linecap="square" stroke-width="1.5" x1="120.0" x2="120.0" y1="179.3" y2="155.3" /><circle cx="260.0" cy="167.3" fill="none" r="8" stroke="blue" stroke-width="1.5" /><line stroke="red" stroke-dasharray="10 5 1 5" stroke-linecap="square" stroke-width="1.5" x1="272.0" x2="248.0" y1="167.3" y2="167.3" /><line stroke="red" stroke-dasharray="10 5 1 5" stroke-linecap="square" stroke-width="1.5" x1="260.0" x2="260.0" y1="179.3" y2="155.3" /><circle cx="120.0" cy="207.3" fill="none" r="8" stroke="blue" stroke-width="1.5" /><line stroke="red" stroke-dasharray="10 5 1 5" stroke-linecap="square" stroke-width="1.5" x1="132.0" x2="108.0" y1="207.3" y2="207.3" /><line stroke="red" stroke-dasharray="10 5 1 5" stroke-linecap="square" stroke-width="1.5" x1="120.0" x2="120.0" y1="219.3" y2="195.3" /><circle cx="260.0" cy="207.3" fill="none" r="8" stroke="blue" stroke-width="1.5" /><line stroke="red" stroke-dasharray="10 5 1 5" stroke-linecap="square" stroke-width="1.5" x1="272.0" x2="248.0" y1="207.3" y2="207.3" /><line stroke="red" stroke-dasharray="10 5 1 5" stroke-linecap="square" stroke-width="1.5" x1="260.0" x2="260.0" y1="219.3" y2="195.3" /><circle cx="120.0" cy="247.3" fill="none" r="8" stroke="blue" stroke-width="1.5" /><line stroke="red" stroke-dasharray="10 5 1 5" stroke-linecap="square" stroke-width="1.5" x1="132.0" x2="108.0" y1="247.3" y2="247.3" /><line stroke="red" stroke-dasharray="10 5 1 5" stroke-linecap="square" stroke-width="1.5" x1="120.0" x2="120.0" y1="259.3" y2="235.3" /><circle cx="260.0" cy="247.3" fill="none" r="8" stroke="blue" stroke-width="1.5" /><line stroke="red" stroke-dasharray="10 5 1 5" stroke-linecap="square" stroke-width="1.5" x1="272.0" x2="248.0" y1="247.3" y2="247.3" /><line stroke="red" stroke-dasharray="10 5 1 5" stroke-linecap="square" stroke-width="1.5" x1="260.0" x2="260.0" y1="259.3" y2="235.3" /><circle cx="120.0" cy="287.3" fill="none" r="8" stroke="blue" stroke-width="1.5" /><line stroke="red" stroke-dasharray="10 5 1 5" stroke-linecap="square" stroke-width="1.5" x1="132.0" x2="108.0" y1="287.3" y2="287.3" /><line stroke="red" stroke-dasharray="10 5 1 5" stroke-linecap="square" stroke-width="1.5" x1="120.0" x2="120.0" y1="299.3" y2="275.3" /><circle cx="260.0" cy="287.3" fill="none" r="8" stroke="blue" stroke-width="1.5" /><line stroke="red" stroke-dasharray="10 5 1 5" stroke-linecap="square" stroke-width="1.5" x1="272.0" x2="248.0" y1="287.3" y2="287.3" /><line stroke="red" stroke-dasharray="10 5 1 5" stroke-linecap="square" stroke-width="1.5" x1="260.0" x2="260.0" y1="299.3" y2="275.3" /><line stroke="#D8D8D8" stroke-linecap="square" stroke-opacity="0.7" stroke-width="2.5" x1="295.1" x2="580.0" y1="37.3" y2="37.3" /><line stroke="#D8D8D8" stroke-linecap="square" stroke-opacity="0.7" stroke-width="2.5" x1="295.1" x2="580.0" y1="337.3" y2="337.3" /><line stroke="#D8D8D8" stroke-linecap="square" stroke-opacity="0.7" stroke-width="2.5" x1="260.0" x2="580.0" y1="87.3" y2="87.3" /><line stroke="#D8D8D8" stroke-linecap="square" stroke-opacity="0.7" stroke-width="2.5" x1="260.0" x2="580.0" y1="287.3" y2="287.3" /><line marker-end="url(#id26)" marker-start="url(#id27)" stroke="black" stroke-linecap="square" stroke-width="2.5" x1="400.0" x2="400.0" y1="37.3" y2="337.3" /><text fill="black" font-family="sans-serif" font-size="28" x="415.0" y="187.3">300</text><line stroke="black" stroke-linecap="square" stroke-opacity="1.0" stroke-width="2.5" x1="410.0" x2="390.0" y1="37.3" y2="37.3" /><line stroke="black" stroke-linecap="square" stroke-opacity="1.0" stroke-width="2.5" x1="410.0" x2="390.0" y1="337.3" y2="337.3" /><line marker-end="url(#id28)" marker-start="url(#id29)" stroke="black" stroke-linecap="square" stroke-width="2.5" x1="580.0" x2="580.0" y1="87.3" y2="287.3" /><text fill="black" font-family="sans-serif" font-size="28" x="600.0" y="187.3">5@40 c/c</text><line stroke="black" stroke-linecap="square" stroke-opacity="1.0" stroke-width="2.5" x1="590.0" x2="570.0" y1="87.3" y2="87.3" /><line stroke="black" stroke-linecap="square" stroke-opacity="1.0" stroke-width="2.5" x1="590.0" x2="570.0" y1="287.3" y2="287.3" /><line marker-end="url(#id30)" marker-start="url(#id31)" stroke="black" stroke-linecap="square" stroke-width="2.5" x1="580.0" x2="580.0" y1="87.3" y2="37.3" /><text fill="black" font-family="sans-serif" font-size="28" x="600.0" y="62.3">50</text><line stroke="black" stroke-linecap="square" stroke-opacity="1.0" stroke-width="2.5" x1="590.0" x2="570.0" y1="87.3" y2="87.3" /><line stroke="black" stroke-linecap="square" stroke-opacity="1.0" stroke-width="2.5" x1="590.0" x2="570.0" y1="37.3" y2="37.3" /><line marker-end="url(#id32)" marker-start="url(#id33)" stroke="black" stroke-linecap="square" stroke-width="2.5" x1="580.0" x2="580.0" y1="287.3" y2="337.3" /><text fill="black" font-family="sans-serif" font-size="28" x="600.0" y="312.3">50</text><line stroke="black" stroke-linecap="square" stroke-opacity="1.0" stroke-width="2.5" x1="590.0" x2="570.0" y1="287.3" y2="287.3" /><line stroke="black" stroke-linecap="square" stroke-opacity="1.0" stroke-width="2.5" x1="590.0" x2="570.0" y1="337.3" y2="337.3" /><line stroke="#D8D8D8" stroke-linecap="square" stroke-opacity="0.7" stroke-width="2.5" x1="380" x2="580" y1="0" y2="0" /><line marker-end="url(#id34)" marker-start="url(#id35)" stroke="black" stroke-linecap="square" stroke-width="2.5" x1="580.0" x2="580.0" y1="0.0" y2="37.3" /><text fill="black" font-family="sans-serif" font-size="28" x="600.0" y="18.65">37</text><line stroke="black" stroke-linecap="square" stroke-opacity="1.0" stroke-width="2.5" x1="590.0" x2="570.0" y1="0.0" y2="0.0" /><line stroke="black" stroke-linecap="square" stroke-opacity="1.0" stroke-width="2.5" x1="590.0" x2="570.0" y1="37.3" y2="37.3" /><line stroke="#D8D8D8" stroke-linecap="square" stroke-opacity="0.7" stroke-width="2.5" x1="84.9" x2="84.9" y1="337.3" y2="600.0" /><line stroke="#D8D8D8" stroke-linecap="square" stroke-opacity="0.7" stroke-width="2.5" x1="295.1" x2="295.1" y1="337.3" y2="600.0" /><line stroke="#D8D8D8" stroke-linecap="square" stroke-opacity="0.7" stroke-width="2.5" x1="260.0" x2="260.0" y1="287.3" y2="650.0" /><line stroke="#D8D8D8" stroke-linecap="square" stroke-opacity="0.7" stroke-width="2.5" x1="120.0" x2="120.0" y1="287.3" y2="650.0" /><line marker-end="url(#id36)" marker-start="url(#id37)" stroke="black" stroke-linecap="square" stroke-width="2.5" x1="84.9" x2="120.0" y1="600.0" y2="600.0" /><text fill="black" font-family="sans-serif" font-size="28" x="102.45" y="650.0">35</text><line stroke="black" stroke-linecap="square" stroke-opacity="1.0" stroke-width="2.5" x1="84.9" x2="84.9" y1="620.0" y2="580.0" /><line stroke="black" stroke-linecap="square" stroke-opacity="1.0" stroke-width="2.5" x1="120.0" x2="120.0" y1="620.0" y2="580.0" /><line marker-end="url(#id38)" marker-start="url(#id39)" stroke="black" stroke-linecap="square" stroke-width="2.5" x1="295.1" x2="260.0" y1="600.0" y2="600.0" /><text fill="black" font-family="sans-serif" font-size="28" x="277.55" y="650.0">35</text><line stroke="black" stroke-linecap="square" stroke-opacity="1.0" stroke-width="2.5" x1="295.1" x2="295.1" y1="620.0" y2="580.0" /><line stroke="black" stroke-linecap="square" stroke-opacity="1.0" stroke-width="2.5" x1="260.0" x2="260.0" y1="620.0" y2="580.0" /><line marker-end="url(#id40)" marker-start="url(#id41)" stroke="black" stroke-linecap="square" stroke-width="2.5" x1="120.0" x2="260.0" y1="700.0" y2="700.0" /><text fill="black" font-family="sans-serif" font-size="28" x="190.0" y="750.0">119</text><line stroke="black" stroke-linecap="square" stroke-opacity="1.0" stroke-width="2.5" x1="120.0" x2="120.0" y1="710.0" y2="690.0" /><line stroke="black" stroke-linecap="square" stroke-opacity="1.0" stroke-width="2.5" x1="260.0" x2="260.0" y1="710.0" y2="690.0" /><line stroke="#D8D8D8" stroke-linecap="square" stroke-opacity="0.7" stroke-width="2.5" x1="174.9" x2="-100.0" y1="37.3" y2="37.3" /><line stroke="#D8D8D8" stroke-linecap="square" stroke-opacity="0.7" stroke-width="2.5" x1="174.9" x2="-100.0" y1="337.3" y2="337.3" /><line stroke="#D8D8D8" stroke-linecap="square" stroke-opacity="0.7" stroke-width="2.5" x1="174.9" x2="-100.0" y1="67.3" y2="67.3" /><line stroke="#D8D8D8" stroke-linecap="square" stroke-opacity="0.7" stroke-width="2.5" x1="174.9" x2="-100.0" y1="307.3" y2="307.3" /><line marker-end="url(#id42)" marker-start="url(#id43)" stroke="black" stroke-linecap="square" stroke-width="2.5" x1="-100.0" x2="-100.0" y1="67.3" y2="307.3" /><text fill="black" font-family="sans-serif" font-size="28" x="-250.0" y="187.3">6@40 c/c</text><line stroke="black" stroke-linecap="square" stroke-opacity="1.0" stroke-width="2.5" x1="-110.0" x2="-90.0" y1="67.3" y2="67.3" /><line stroke="black" stroke-linecap="square" stroke-opacity="1.0" stroke-width="2.5" x1="-110.0" x2="-90.0" y1="307.3" y2="307.3" /><line marker-end="url(#id44)" marker-start="url(#id45)" stroke="black" stroke-linecap="square" stroke-width="2.5" x1="-100.0" x2="-100.0" y1="67.3" y2="37.3" /><text fill="black" font-family="sans-serif" font-size="28" x="-150.0" y="52.3">30</text><line stroke="black" stroke-linecap="square" stroke-opacity="1.0" stroke-width="2.5" x1="-110.0" x2="-90.0" y1="67.3" y2="67.3" /><line stroke="black" stroke-linecap="square" stroke-opacity="1.0" stroke-width="2.5" x1="-110.0" x2="-90.0" y1="37.3" y2="37.3" /><line marker-end="url(#id46)" marker-start="url(#id47)" stroke="black" stroke-linecap="square" stroke-width="2.5" x1="-100.0" x2="-100.0" y1="307.3" y2="337.3" /><text fill="black" font-family="sans-serif" font-size="28" x="-150.0" y="322.3">30</text><line stroke="black" stroke-linecap="square" stroke-opacity="1.0" stroke-width="2.5" x1="-110.0" x2="-90.0" y1="307.3" y2="307.3" /><line stroke="black" stroke-linecap="square" stroke-opacity="1.0" stroke-width="2.5" x1="-110.0" x2="-90.0" y1="337.3" y2="337.3" /><polyline fill="none" marker-start="url(#id48)" points="280.0,500.0 496.506350946,625.0 704.506350946,625.0" stroke="black" stroke-width="2.5" /><text fill="black" font-family="sans-serif" font-size="28" x="517.306350946" y="607.0">Beam ISMB 500</text><text fill="black" font-family="sans-serif" font-size="28" x="517.306350946" y="643.0" /><polyline fill="none" marker-start="url(#id49)" points="0,0 0.0,0.0 -208.0,0.0" stroke="black" stroke-width="2.5" /><text fill="black" font-family="sans-serif" font-size="28" x="-187.2" y="-18.0">Beam ISMB 550</text><text fill="black" font-family="sans-serif" font-size="28" x="-228.8" y="18.0" /><polyline fill="none" marker-start="url(#id50)" points="260.0,87.3 522.0,-174.7 906.0,-174.7" stroke="black" stroke-width="2.5" /><text fill="black" font-family="sans-serif" font-size="28" x="560.4" y="-192.7">12 nos 16Ø holes</text><text fill="black" font-family="sans-serif" font-size="28" x="560.4" y="-141.7">for M16bolts(grade 10.8)</text><polyline fill="none" marker-start="url(#id51)" points="174.9,67.3 87.5471437761,-172.7 -296.452856224,-172.7" stroke="black" stroke-width="2.5" /><text fill="black" font-family="sans-serif" font-size="28" x="-258.052856224" y="-190.7">7 nos 16Ø holes</text><text fill="black" font-family="sans-serif" font-size="28" x="-334.852856224" y="-154.7">for M16bolts(grade 10.8)</text><polyline fill="none" marker-start="url(#id52)" points="84.9,337.3 -221.763099629,514.352023121 -445.763099629,514.352023121" stroke="black" stroke-width="2.5" /><text fill="black" font-family="sans-serif" font-size="28" x="-423.363099629" y="496.352023121">ISA.100X100X10</text><text fill="black" font-family="sans-serif" font-size="28" x="-468.163099629" y="532.352023121" /><text fill="black" font-family="sans-serif" font-size="30" x="50" y="980">Side View (Sec B-B)</text><text fill="black" font-family="sans-serif" font-size="30" x="400" y="980">(All distances are in "mm")</text></svg>