<?xml version="1.0" encoding="utf-8" ?>
<svg baseProfile="full" height="1225mm" version="1.1" viewBox="-500 -350 1550 1450" width="1200mm" xmlns="http://www.w3.org/2000/svg" xmlns:ev="http://www.w3.org/2001/xml-events" xmlns:xlink="http://www.w3.org/1999/xlink"><defs><marker id="id1" markerHeight="10" markerWidth="10" orient="auto" refX="0" refY="5"><path d="M 0 0 L 10 5 L 0 10 z" fill="blue" stroke="black" /></marker><marker id="id2" markerHeight="10" markerWidth="10" orient="auto" refX="0" refY="5"><path d="M 0 0 L 10 5 L 0 10 z" fill="blue" stroke="black" /></marker><marker id="id3" markerHeight="30" markerWidth="30" orient="auto" refX="8" refY="3"><path d=" M0,0 L3,3 L0,6 L8,3 L0,0" fill="black" /></marker><marker id="id4" markerHeight="20" markerWidth="30" orient="auto" refX="0" refY="3"><path d=" M0,3 L8,6 L5,3 L8,0 L0,3" fill="black" /></marker><marker id="id5" markerHeight="30" markerWidth="30" orient="auto" refX="8" refY="3"><path d=" M0,0 L3,3 L0,6 L8,3 L0,0" fill="black" /></marker><marker id="id6" markerHeight="20" markerWidth="30" orient="auto" refX="0" refY="3"><path d=" M0,3 L8,6 L5,3 L8,0 L0,3" fill="black" /></marker><marker id="id7" markerHeight="30" markerWidth="30" orient="auto" refX="8" refY="3"><path d=" M0,0 L3,3 L0,6 L8,3 L0,0" fill="black" /></marker><marker id="id8" markerHeight="20" markerWidth="30" orient="auto" refX="0" refY="3"><path d=" M0,3 L8,6 L5,3 L8,0 L0,3" fill="black" /></marker><marker id="id9" markerHeight="30" markerWidth="30" orient="auto" refX="8" refY="3"><path d=" M0,0 L3,3 L0,6 L8,3 L0,0" fill="black" /></marker><marker id="id10" markerHeight="20" markerWidth="30" orient="auto" refX="0" refY="3"><path d=" M0,3 L8,6 L5,3 L8,0 L0,3" fill="black" /></marker><marker id="id11" markerHeight="30" markerWidth="30" orient="auto" refX="8" refY="3"><path d=" M0,0 L3,3 L0,6 L8,3 L0,0" fill="black" /></marker><marker id="id12" markerHeight="20" markerWidth="30" orient="auto" refX="0" refY="3"><path d=" M0,3 L8,6 L5,3 L8,0 L0,3" fill="black" /></marker><marker id="id13" markerHeight="30" markerWidth="30" orient="auto" refX="8" refY="3"><path d=" M0,0 L3,3 L0,6 L8,3 L0,0" fill="black" /></marker><marker id="id14" markerHeight="20" markerWidth="30" orient="auto" refX="0" refY="3"><path d=" M0,3 L8,6 L5,3 L8,0 L0,3" fill="black" /></marker><marker id="id15" markerHeight="30" markerWidth="30" orient="auto" refX="8" refY="3"><path d=" M0,0 L3,3 L0,6 L8,3 L0,0" fill="black" /></marker><marker id="id16" markerHeight="20" markerWidth="30" orient="auto" refX="0" refY="3"><path d=" M0,3 L8,6 L5,3 L8,0 L0,3" fill="black" /></marker><marker id="id17" markerHeight="30" markerWidth="30" orient="auto" refX="8" refY="3"><path d=" M0,0 L3,3 L0,6 L8,3 L0,0" fill="black" /></marker><marker id="id18" markerHeight="20" markerWidth="30" orient="auto" refX="0" refY="3"><path d=" M0,3 L8,6 L5,3 L8,0 L0,3" fill="black" /></marker><marker id="id19" markerHeight="30" markerWidth="30" orient="auto" refX="8" refY="3"><path d=" M0,0 L3,3 L0,6 L8,3 L0,0" fill="black" /></marker><marker id="id20" markerHeight="20" markerWidth="30" orient="auto" refX="0" refY="3"><path d=" M0,3 L8,6 L5,3 L8,0 L0,3" fill="black" /></marker><marker id="id21" markerHeight="30" markerWidth="30" orient="auto" refX="8" refY="3"><path d=" M0,0 L3,3 L0,6 L8,3 L0,0" fill="black" /></marker><marker id="id22" markerHeight="20" markerWidth="30" orient="auto" refX="0" refY="3"><path d=" M0,3 L8,6 L5,3 L8,0 L0,3" fill="black" /></marker><marker id="id23" markerHeight="20" markerWidth="30" orient="auto" refX="0" refY="3"><path d=" M0,3 L8,6 L5,3 L8,0 L0,3" fill="black" /></marker><marker id="id24" markerHeight="20" markerWidth="30" orient="auto" refX="0" refY="3"><path d=" M0,3 L8,6 L5,3 L8,0 L0,3" fill="black" /></marker><marker id="id25" markerHeight="20" markerWidth="30" orient="auto" refX="0" refY="3"><path d=" M0,3 L8,6 L5,3 L8,0 L0,3" fill="black" /></marker><marker id="id26" markerHeight="20" markerWidth="30" orient="auto" refX="0" refY="3"><path d=" M0,3 L8,6 L5,3 L8,0 L0,3" fill="black" /></marker><marker id="id27" markerHeight="20" markerWidth="30" orient="auto" refX="0" refY="3"><path d=" M0,3 L8,6 L5,3 L8,0 L0,3" fill="black" /></marker></defs><polyline fill="none" points="0,0 250,0.0 250,800 0.0,800 0,0" stroke="blue" stroke-width="2.5" /><line stroke="blue" stroke-linecap="square" stroke-width="2.5" x1="17.0" x2="17.0" y1="0.0" y2="800" /><line stroke="blue" stroke-linecap="square" stroke-width="2.5" x1="233.0" x2="233.0" y1="0.0" y2="800" /><polyline fill="none" points="270.0,233.0 270,200 620,200 620,600 270,600 270,507.0" stroke="blue" stroke-width="2.5" /><line stroke="red" stroke-dasharray="5 5" stroke-linecap="square" stroke-width="2.5" x1="270.0" x2="270" y1="233.0" y2="507.0" /><line stroke="blue" stroke-linecap="square" stroke-width="2.5" x1="270" x2="620" y1="216.0" y2="216.0" /><line stroke="blue" stroke-linecap="square" stroke-width="2.5" x1="270" x2="620" y1="584.0" y2="584.0" /><rect fill="none" height="274" stroke="blue" stroke-width="2.5" width="10" x="250" y="233.0" /><rect fill="none" height="274" stroke="blue" stroke-width="2.5" width="90" x="260.0" y="233.0" /><circle cx="313.0" cy="270.0" fill="none" r="10" stroke="blue" stroke-width="1.5" /><line stroke="red" stroke-linecap="square" stroke-width="2.0" x1="299.0" x2="327.0" y1="270.0" y2="270.0" /><line stroke="red" stroke-linecap="square" stroke-width="2.0" x1="313.0" x2="313.0" y1="256.0" y2="284.0" /><circle cx="313.0" cy="320.0" fill="none" r="10" stroke="blue" stroke-width="1.5" /><line stroke="red" stroke-linecap="square" stroke-width="2.0" x1="299.0" x2="327.0" y1="320.0" y2="320.0" /><line stroke="red" stroke-linecap="square" stroke-width="2.0" x1="313.0" x2="313.0" y1="306.0" y2="334.0" /><circle cx="313.0" cy="370.0" fill="none" r="10" stroke="blue" stroke-width="1.5" /><line stroke="red" stroke-linecap="square" stroke-width="2.0" x1="299.0" x2="327.0" y1="370.0" y2="370.0" /><line stroke="red" stroke-linecap="square" stroke-width="2.0" x1="313.0" x2="313.0" y1="356.0" y2="384.0" /><circle cx="313.0" cy="420.0" fill="none" r="10" stroke="blue" stroke-width="1.5" /><line stroke="red" stroke-linecap="square" stroke-width="2.0" x1="299.0" x2="327.0" y1="420.0" y2="420.0" /><line stroke="red" stroke-linecap="square" stroke-width="2.0" x1="313.0" x2="313.0" y1="406.0" y2="434.0" /><circle cx="313.0" cy="470.0" fill="none" r="10" stroke="blue" stroke-width="1.5" /><line stroke="red" stroke-linecap="square" stroke-width="2.0" x1="299.0" x2="327.0" y1="470.0" y2="470.0" /><line stroke="red" stroke-linecap="square" stroke-width="2.0" x1="313.0" x2="313.0" y1="456.0" y2="484.0" /><rect fill="black" height="20" stroke="black" stroke-width="2.0" width="27.0" x="233.0" y="285.0" /><line stroke="black" stroke-linecap="square" stroke-width="2.0" x1="223.0" x2="270.0" y1="295.0" y2="295.0" /><rect fill="black" height="20" stroke="black" stroke-width="2.0" width="27.0" x="233.0" y="335.0" /><line stroke="black" stroke-linecap="square" stroke-width="2.0" x1="223.0" x2="270.0" y1="345.0" y2="345.0" /><rect fill="black" height="20" stroke="black" stroke-width="2.0" width="27.0" x="233.0" y="385.0" /><line stroke="black" stroke-linecap="square" stroke-width="2.0" x1="223.0" x2="270.0" y1="395.0" y2="395.0" /><rect fill="black" height="20" stroke="black" stroke-width="2.0" width="27.0" x="233.0" y="435.0" /><line stroke="black" stroke-linecap="square" stroke-width="2.0" x1="223.0" x2="270.0" y1="445.0" y2="445.0" /><line marker-end="url(#id1)" stroke="black" stroke-linecap="square" stroke-width="2.5" x1="0" x2="0" y1="-270" y2="-220" /><text fill="black" font-family="sans-serif" font-size="52" x="-10" y="-140">A</text><line marker-end="url(#id2)" stroke="black" stroke-linecap="square" stroke-width="2.5" x1="600" x2="600" y1="-270" y2="-220" /><text fill="black" font-family="sans-serif" font-size="52" x="590" y="-140">A</text><line stroke="#666666" stroke-linecap="square" stroke-width="1.0" x1="0" x2="600" y1="-270" y2="-270" /><line stroke="#D8D8D8" stroke-linecap="square" stroke-opacity="0.7" stroke-width="2.5" x1="350.0" x2="925.0" y1="233.0" y2="233.0" /><line stroke="#D8D8D8" stroke-linecap="square" stroke-opacity="0.7" stroke-width="2.5" x1="350.0" x2="925.0" y1="507.0" y2="507.0" /><line marker-end="url(#id3)" marker-start="url(#id4)" stroke="black" stroke-linecap="square" stroke-width="2.5" x1="700.0" x2="700.0" y1="233.0" y2="507.0" /><text fill="black" font-family="sans-serif" font-size="28" x="710.0" y="370.0">274</text><line stroke="black" stroke-linecap="square" stroke-opacity="1.0" stroke-width="2.5" x1="710.0" x2="690.0" y1="233.0" y2="233.0" /><line stroke="black" stroke-linecap="square" stroke-opacity="1.0" stroke-width="2.5" x1="710.0" x2="690.0" y1="507.0" y2="507.0" /><line stroke="#D8D8D8" stroke-linecap="square" stroke-opacity="0.7" stroke-width="2.5" x1="313.0" x2="888.0" y1="270.0" y2="270.0" /><line stroke="#D8D8D8" stroke-linecap="square" stroke-opacity="0.7" stroke-width="2.5" x1="313.0" x2="888.0" y1="470.0" y2="470.0" /><line marker-end="url(#id5)" marker-start="url(#id6)" stroke="black" stroke-linecap="square" stroke-width="2.5" x1="888.0" x2="888.0" y1="270.0" y2="470.0" /><text fill="black" font-family="sans-serif" font-size="28" x="898.0" y="370.0">4@50c/c</text><line stroke="black" stroke-linecap="square" stroke-opacity="1.0" stroke-width="2.5" x1="898.0" x2="878.0" y1="270.0" y2="270.0" /><line stroke="black" stroke-linecap="square" stroke-opacity="1.0" stroke-width="2.5" x1="898.0" x2="878.0" y1="470.0" y2="470.0" /><line marker-end="url(#id7)" marker-start="url(#id8)" stroke="black" stroke-linecap="square" stroke-width="2.5" x1="888.0" x2="888.0" y1="270.0" y2="233.0" /><text fill="black" font-family="sans-serif" font-size="28" x="898.0" y="251.5">37</text><line stroke="black" stroke-linecap="square" stroke-opacity="1.0" stroke-width="2.5" x1="898.0" x2="878.0" y1="270.0" y2="270.0" /><line stroke="black" stroke-linecap="square" stroke-opacity="1.0" stroke-width="2.5" x1="898.0" x2="878.0" y1="233.0" y2="233.0" /><line marker-end="url(#id9)" marker-start="url(#id10)" stroke="black" stroke-linecap="square" stroke-width="2.5" x1="888.0" x2="888.0" y1="470.0" y2="507.0" /><text fill="black" font-family="sans-serif" font-size="28" x="898.0" y="488.5">37</text><line stroke="black" stroke-linecap="square" stroke-opacity="1.0" stroke-width="2.5" x1="898.0" x2="878.0" y1="470.0" y2="470.0" /><line stroke="black" stroke-linecap="square" stroke-opacity="1.0" stroke-width="2.5" x1="898.0" x2="878.0" y1="507.0" y2="507.0" /><line marker-end="url(#id11)" marker-start="url(#id12)" stroke="black" stroke-linecap="square" stroke-width="2.5" x1="-67.0" x2="-67.0" y1="295.0" y2="445.0" /><text fill="black" font-family="sans-serif" font-size="28" x="-212.0" y="370.0">3 @50 c/c</text><line stroke="black" stroke-linecap="square" stroke-opacity="1.0" stroke-width="2.5" x1="-77.0" x2="-57.0" y1="295.0" y2="295.0" /><line stroke="black" stroke-linecap="square" stroke-opacity="1.0" stroke-width="2.5" x1="-77.0" x2="-57.0" y1="445.0" y2="445.0" /><line marker-end="url(#id13)" marker-start="url(#id14)" stroke="black" stroke-linecap="square" stroke-width="2.5" x1="-67.0" x2="-67.0" y1="200.0" y2="233.0" /><text fill="black" font-family="sans-serif" font-size="28" x="-117.0" y="216.5">33</text><line stroke="black" stroke-linecap="square" stroke-opacity="1.0" stroke-width="2.5" x1="-77.0" x2="-57.0" y1="200.0" y2="200.0" /><line stroke="black" stroke-linecap="square" stroke-opacity="1.0" stroke-width="2.5" x1="-77.0" x2="-57.0" y1="233.0" y2="233.0" /><line stroke="#D8D8D8" stroke-linecap="square" stroke-opacity="0.7" stroke-width="2.5" x1="270" x2="-30" y1="200" y2="200" /><line marker-end="url(#id15)" marker-start="url(#id16)" stroke="black" stroke-linecap="square" stroke-width="2.5" x1="-67.0" x2="-67.0" y1="295.0" y2="233.0" /><text fill="black" font-family="sans-serif" font-size="28" x="-117.0" y="264.0">62</text><line stroke="black" stroke-linecap="square" stroke-opacity="1.0" stroke-width="2.5" x1="-77.0" x2="-57.0" y1="295.0" y2="295.0" /><line stroke="black" stroke-linecap="square" stroke-opacity="1.0" stroke-width="2.5" x1="-77.0" x2="-57.0" y1="233.0" y2="233.0" /><line marker-end="url(#id17)" marker-start="url(#id18)" stroke="black" stroke-linecap="square" stroke-width="2.5" x1="-67.0" x2="-67.0" y1="445.0" y2="507.0" /><text fill="black" font-family="sans-serif" font-size="28" x="-117.0" y="476.0">62</text><line stroke="black" stroke-linecap="square" stroke-opacity="1.0" stroke-width="2.5" x1="-77.0" x2="-57.0" y1="445.0" y2="445.0" /><line stroke="black" stroke-linecap="square" stroke-opacity="1.0" stroke-width="2.5" x1="-77.0" x2="-57.0" y1="507.0" y2="507.0" /><line marker-end="url(#id19)" marker-start="url(#id20)" stroke="black" stroke-linecap="square" stroke-width="2.5" x1="350.0" x2="313.0" y1="46.0" y2="46.0" /><text fill="black" font-family="sans-serif" font-size="28" x="331.5" y="36.0">37</text><line stroke="black" stroke-linecap="square" stroke-opacity="1.0" stroke-width="2.5" x1="350.0" x2="350.0" y1="36.0" y2="56.0" /><line stroke="black" stroke-linecap="square" stroke-opacity="1.0" stroke-width="2.5" x1="313.0" x2="313.0" y1="36.0" y2="56.0" /><line stroke="#D8D8D8" stroke-linecap="square" stroke-opacity="0.7" stroke-width="2.5" x1="350.0" x2="350.0" y1="233.0" y2="46.0" /><line stroke="#D8D8D8" stroke-linecap="square" stroke-opacity="0.7" stroke-width="2.5" x1="313.0" x2="313.0" y1="233.0" y2="46.0" /><line stroke="black" stroke-linecap="square" stroke-width="2.5" x1="250.0" x2="250.0" y1="840.0" y2="840.0" /><line stroke="black" stroke-linecap="square" stroke-width="2.5" x1="270.0" x2="270.0" y1="840.0" y2="840.0" /><line marker-end="url(#id21)" stroke="black" stroke-linecap="square" stroke-width="2.5" x1="200.0" x2="250.0" y1="830.0" y2="830.0" /><line marker-end="url(#id21)" stroke="black" stroke-linecap="butt" stroke-width="2.5" x1="320.0" x2="270.0" y1="830.0" y2="830.0" /><text fill="black" font-family="sans-serif" font-size="28" x="340.0" y="830.0">20</text><line stroke="#D8D8D8" stroke-linecap="square" stroke-opacity="0.7" stroke-width="2.5" x1="250" x2="250" y1="800" y2="840" /><line stroke="#D8D8D8" stroke-linecap="square" stroke-opacity="0.7" stroke-width="2.5" x1="270" x2="270" y1="600" y2="840" /><line stroke="#D8D8D8" stroke-linecap="square" stroke-opacity="0.7" stroke-width="2.5" x1="250" x2="-30" y1="233.0" y2="233.0" /><line stroke="#D8D8D8" stroke-linecap="square" stroke-opacity="0.7" stroke-width="2.5" x1="233.0" x2="-30" y1="295.0" y2="295.0" /><line stroke="#D8D8D8" stroke-linecap="square" stroke-opacity="0.7" stroke-width="2.5" x1="233.0" x2="-30" y1="445.0" y2="445.0" /><line stroke="#D8D8D8" stroke-linecap="square" stroke-opacity="0.7" stroke-width="2.5" x1="250" x2="-30" y1="507.0" y2="507.0" /><polyline fill="none" marker-start="url(#id23)" points="270,600 393.0,723.0 601.0,723.0" stroke="black" stroke-width="2.5" /><text fill="black" font-family="sans-serif" font-size="28" x="413.8" y="705.0">Beam ISMB 400</text><text fill="black" font-family="sans-serif" font-size="28" x="413.8" y="741.0" /><polyline fill="none" marker-start="url(#id24)" points="125,0 -13.5640646055,-80.0 -253.564064606,-80.0" stroke="black" stroke-width="2.5" /><text fill="black" font-family="sans-serif" font-size="28" x="-229.564064606" y="-98.0">Column ISSC 250</text><text fill="black" font-family="sans-serif" font-size="28" x="-277.564064606" y="-62.0" /><polyline fill="none" marker-start="url(#id25)" points="313.0,270.0 463.0,120.0 831.0,120.0" stroke="black" stroke-width="2.5" /><text fill="black" font-family="sans-serif" font-size="28" x="499.8" y="102.0">5 nos 20Ø holes</text><text fill="black" font-family="sans-serif" font-size="28" x="499.8" y="153.0">for M20bolts(grade 8.8)</text><polyline fill="none" marker-start="url(#id26)" points="233.0,445.0 -27.0,705.0 -395.0,705.0" stroke="black" stroke-width="2.5" /><text fill="black" font-family="sans-serif" font-size="28" x="-358.2" y="687.0">8 nos 20Ø holes</text><text fill="black" font-family="sans-serif" font-size="28" x="-431.8" y="723.0">for M20bolts(grade 8.8)</text><polyline fill="none" marker-start="url(#id27)" points="300.0,507.0 460.0,667.0 684.0,667.0" stroke="black" stroke-width="2.5" /><text fill="black" font-family="sans-serif" font-size="28" x="482.4" y="649.0">ISA.100X100X10</text><text fill="black" font-family="sans-serif" font-size="28" x="482.4" y="685.0" /><text fill="black" font-family="sans-serif" font-size="30" x="50" y="1150">Front view (Sec C-C)</text><text fill="black" font-family="sans-serif" font-size="30" x="600" y="1150">(All distances are in "mm")</text></svg>