<?xml version="1.0" encoding="utf-8" ?>
<svg baseProfile="full" height="100%" version="1.1" viewBox="-350 -300 1200 1500" width="100%" xmlns="http://www.w3.org/2000/svg" xmlns:ev="http://www.w3.org/2001/xml-events" xmlns:xlink="http://www.w3.org/1999/xlink"><defs><marker id="id28" markerHeight="30" markerWidth="30" orient="auto" refX="8" refY="3"><path d=" M0,0 L3,3 L0,6 L8,3 L0,0" fill="black" /></marker><marker id="id29" markerHeight="20" markerWidth="30" orient="auto" refX="0" refY="3"><path d=" M0,3 L8,6 L5,3 L8,0 L0,3" fill="black" /></marker><marker id="id30" markerHeight="30" markerWidth="30" orient="auto" refX="8" refY="3"><path d=" M0,0 L3,3 L0,6 L8,3 L0,0" fill="black" /></marker><marker id="id31" markerHeight="20" markerWidth="30" orient="auto" refX="0" refY="3"><path d=" M0,3 L8,6 L5,3 L8,0 L0,3" fill="black" /></marker><marker id="id32" markerHeight="30" markerWidth="30" orient="auto" refX="8" refY="3"><path d=" M0,0 L3,3 L0,6 L8,3 L0,0" fill="black" /></marker><marker id="id33" markerHeight="20" markerWidth="30" orient="auto" refX="0" refY="3"><path d=" M0,3 L8,6 L5,3 L8,0 L0,3" fill="black" /></marker><marker id="id34" markerHeight="30" markerWidth="30" orient="auto" refX="8" refY="3"><path d=" M0,0 L3,3 L0,6 L8,3 L0,0" fill="black" /></marker><marker id="id35" markerHeight="20" markerWidth="30" orient="auto" refX="0" refY="3"><path d=" M0,3 L8,6 L5,3 L8,0 L0,3" fill="black" /></marker><marker id="id36" markerHeight="30" markerWidth="30" orient="auto" refX="8" refY="3"><path d=" M0,0 L3,3 L0,6 L8,3 L0,0" fill="black" /></marker><marker id="id37" markerHeight="20" markerWidth="30" orient="auto" refX="0" refY="3"><path d=" M0,3 L8,6 L5,3 L8,0 L0,3" fill="black" /></marker><marker id="id38" markerHeight="30" markerWidth="30" orient="auto" refX="8" refY="3"><path d=" M0,0 L3,3 L0,6 L8,3 L0,0" fill="black" /></marker><marker id="id39" markerHeight="20" markerWidth="30" orient="auto" refX="0" refY="3"><path d=" M0,3 L8,6 L5,3 L8,0 L0,3" fill="black" /></marker><marker id="id40" markerHeight="30" markerWidth="30" orient="auto" refX="8" refY="3"><path d=" M0,0 L3,3 L0,6 L8,3 L0,0" fill="black" /></marker><marker id="id41" markerHeight="20" markerWidth="30" orient="auto" refX="0" refY="3"><path d=" M0,3 L8,6 L5,3 L8,0 L0,3" fill="black" /></marker><marker id="id42" markerHeight="30" markerWidth="30" orient="auto" refX="8" refY="3"><path d=" M0,0 L3,3 L0,6 L8,3 L0,0" fill="black" /></marker><marker id="id43" markerHeight="20" markerWidth="30" orient="auto" refX="0" refY="3"><path d=" M0,3 L8,6 L5,3 L8,0 L0,3" fill="black" /></marker><marker id="id44" markerHeight="30" markerWidth="30" orient="auto" refX="8" refY="3"><path d=" M0,0 L3,3 L0,6 L8,3 L0,0" fill="black" /></marker><marker id="id45" markerHeight="20" markerWidth="30" orient="auto" refX="0" refY="3"><path d=" M0,3 L8,6 L5,3 L8,0 L0,3" fill="black" /></marker><marker id="id46" markerHeight="30" markerWidth="30" orient="auto" refX="8" refY="3"><path d=" M0,0 L3,3 L0,6 L8,3 L0,0" fill="black" /></marker><marker id="id47" markerHeight="20" markerWidth="30" orient="auto" refX="0" refY="3"><path d=" M0,3 L8,6 L5,3 L8,0 L0,3" fill="black" /></marker><marker id="id48" markerHeight="20" markerWidth="30" orient="auto" refX="0" refY="3"><path d=" M0,3 L8,6 L5,3 L8,0 L0,3" fill="black" /></marker><marker id="id49" markerHeight="20" markerWidth="30" orient="auto" refX="0" refY="3"><path d=" M0,3 L8,6 L5,3 L8,0 L0,3" fill="black" /></marker><marker id="id50" markerHeight="20" markerWidth="30" orient="auto" refX="0" refY="3"><path d=" M0,3 L8,6 L5,3 L8,0 L0,3" fill="black" /></marker><marker id="id51" markerHeight="20" markerWidth="30" orient="auto" refX="0" refY="3"><path d=" M0,3 L8,6 L5,3 L8,0 L0,3" fill="black" /></marker><marker id="id52" markerHeight="20" markerWidth="30" orient="auto" refX="0" refY="3"><path d=" M0,3 L8,6 L5,3 L8,0 L0,3" fill="black" /></marker></defs><rect fill="none" height="800" stroke="blue" stroke-width="2.5" width="250" x="0" y="0" /><polyline fill="none" points="55,200 195,200 195.0,216.0 129.45,216.0 129.45,584.0 195.0,584.0 195,600 55,600 55.0,584.0 120.55,584.0 120.55,216.0 55.0,216.0 55,200" stroke="blue" stroke-width="2.5" /><rect fill="none" height="274" stroke="blue" stroke-width="2.5" width="90" x="20.55" y="233.0" /><rect fill="none" height="274" stroke="blue" stroke-width="2.5" width="10" x="110.55" y="233.0" /><rect fill="none" height="274" stroke="blue" stroke-width="2.5" width="90" x="139.45" y="233.0" /><rect fill="none" height="274" stroke="blue" stroke-width="2.5" width="10" x="129.45" y="233.0" /><rect fill="black" height="20" stroke="none" stroke-width="2.5" width="28.9" x="110.55" y="260.0" /><line stroke="black" stroke-linecap="square" stroke-width="1.5" x1="105.55" x2="144.45" y1="270.0" y2="270.0" /><rect fill="black" height="20" stroke="none" stroke-width="2.5" width="28.9" x="110.55" y="310.0" /><line stroke="black" stroke-linecap="square" stroke-width="1.5" x1="105.55" x2="144.45" y1="320.0" y2="320.0" /><rect fill="black" height="20" stroke="none" stroke-width="2.5" width="28.9" x="110.55" y="360.0" /><line stroke="black" stroke-linecap="square" stroke-width="1.5" x1="105.55" x2="144.45" y1="370.0" y2="370.0" /><rect fill="black" height="20" stroke="none" stroke-width="2.5" width="28.9" x="110.55" y="410.0" /><line stroke="black" stroke-linecap="square" stroke-width="1.5" x1="105.55" x2="144.45" y1="420.0" y2="420.0" /><rect fill="black" height="20" stroke="none" stroke-width="2.5" width="28.9" x="110.55" y="460.0" /><line stroke="black" stroke-linecap="square" stroke-width="1.5" x1="105.55" x2="144.45" y1="470.0" y2="470.0" /><circle cx="57.55" cy="295.0" fill="none" r="10" stroke="blue" stroke-width="1.5" /><line stroke="red" stroke-dasharray="10 5 1 5" stroke-linecap="square" stroke-width="1.5" x1="71.55" x2="43.55" y1="295.0" y2="295.0" /><line stroke="red" stroke-dasharray="10 5 1 5" stroke-linecap="square" stroke-width="1.5" x1="57.55" x2="57.55" y1="309.0" y2="281.0" /><circle cx="192.45" cy="295.0" fill="none" r="10" stroke="blue" stroke-width="1.5" /><line stroke="red" stroke-dasharray="10 5 1 5" stroke-linecap="square" stroke-width="1.5" x1="206.45" x2="178.45" y1="295.0" y2="295.0" /><line stroke="red" stroke-dasharray="10 5 1 5" stroke-linecap="square" stroke-width="1.5" x1="192.45" x2="192.45" y1="309.0" y2="281.0" /><circle cx="57.55" cy="345.0" fill="none" r="10" stroke="blue" stroke-width="1.5" /><line stroke="red" stroke-dasharray="10 5 1 5" stroke-linecap="square" stroke-width="1.5" x1="71.55" x2="43.55" y1="345.0" y2="345.0" /><line stroke="red" stroke-dasharray="10 5 1 5" stroke-linecap="square" stroke-width="1.5" x1="57.55" x2="57.55" y1="359.0" y2="331.0" /><circle cx="192.45" cy="345.0" fill="none" r="10" stroke="blue" stroke-width="1.5" /><line stroke="red" stroke-dasharray="10 5 1 5" stroke-linecap="square" stroke-width="1.5" x1="206.45" x2="178.45" y1="345.0" y2="345.0" /><line stroke="red" stroke-dasharray="10 5 1 5" stroke-linecap="square" stroke-width="1.5" x1="192.45" x2="192.45" y1="359.0" y2="331.0" /><circle cx="57.55" cy="395.0" fill="none" r="10" stroke="blue" stroke-width="1.5" /><line stroke="red" stroke-dasharray="10 5 1 5" stroke-linecap="square" stroke-width="1.5" x1="71.55" x2="43.55" y1="395.0" y2="395.0" /><line stroke="red" stroke-dasharray="10 5 1 5" stroke-linecap="square" stroke-width="1.5" x1="57.55" x2="57.55" y1="409.0" y2="381.0" /><circle cx="192.45" cy="395.0" fill="none" r="10" stroke="blue" stroke-width="1.5" /><line stroke="red" stroke-dasharray="10 5 1 5" stroke-linecap="square" stroke-width="1.5" x1="206.45" x2="178.45" y1="395.0" y2="395.0" /><line stroke="red" stroke-dasharray="10 5 1 5" stroke-linecap="square" stroke-width="1.5" x1="192.45" x2="192.45" y1="409.0" y2="381.0" /><circle cx="57.55" cy="445.0" fill="none" r="10" stroke="blue" stroke-width="1.5" /><line stroke="red" stroke-dasharray="10 5 1 5" stroke-linecap="square" stroke-width="1.5" x1="71.55" x2="43.55" y1="445.0" y2="445.0" /><line stroke="red" stroke-dasharray="10 5 1 5" stroke-linecap="square" stroke-width="1.5" x1="57.55" x2="57.55" y1="459.0" y2="431.0" /><circle cx="192.45" cy="445.0" fill="none" r="10" stroke="blue" stroke-width="1.5" /><line stroke="red" stroke-dasharray="10 5 1 5" stroke-linecap="square" stroke-width="1.5" x1="206.45" x2="178.45" y1="445.0" y2="445.0" /><line stroke="red" stroke-dasharray="10 5 1 5" stroke-linecap="square" stroke-width="1.5" x1="192.45" x2="192.45" y1="459.0" y2="431.0" /><line stroke="#D8D8D8" stroke-linecap="square" stroke-opacity="0.7" stroke-width="2.5" x1="229.45" x2="500.0" y1="233.0" y2="233.0" /><line stroke="#D8D8D8" stroke-linecap="square" stroke-opacity="0.7" stroke-width="2.5" x1="229.45" x2="500.0" y1="507.0" y2="507.0" /><line stroke="#D8D8D8" stroke-linecap="square" stroke-opacity="0.7" stroke-width="2.5" x1="192.45" x2="500.0" y1="295.0" y2="295.0" /><line stroke="#D8D8D8" stroke-linecap="square" stroke-opacity="0.7" stroke-width="2.5" x1="192.45" x2="500.0" y1="445.0" y2="445.0" /><line marker-end="url(#id28)" marker-start="url(#id29)" stroke="black" stroke-linecap="square" stroke-width="2.5" x1="320.0" x2="320.0" y1="233.0" y2="507.0" /><text fill="black" font-family="sans-serif" font-size="28" x="335.0" y="370.0">274</text><line stroke="black" stroke-linecap="square" stroke-opacity="1.0" stroke-width="2.5" x1="330.0" x2="310.0" y1="233.0" y2="233.0" /><line stroke="black" stroke-linecap="square" stroke-opacity="1.0" stroke-width="2.5" x1="330.0" x2="310.0" y1="507.0" y2="507.0" /><line marker-end="url(#id30)" marker-start="url(#id31)" stroke="black" stroke-linecap="square" stroke-width="2.5" x1="500.0" x2="500.0" y1="295.0" y2="445.0" /><text fill="black" font-family="sans-serif" font-size="28" x="520.0" y="370.0">3@50 c/c</text><line stroke="black" stroke-linecap="square" stroke-opacity="1.0" stroke-width="2.5" x1="510.0" x2="490.0" y1="295.0" y2="295.0" /><line stroke="black" stroke-linecap="square" stroke-opacity="1.0" stroke-width="2.5" x1="510.0" x2="490.0" y1="445.0" y2="445.0" /><line marker-end="url(#id32)" marker-start="url(#id33)" stroke="black" stroke-linecap="square" stroke-width="2.5" x1="500.0" x2="500.0" y1="295.0" y2="233.0" /><text fill="black" font-family="sans-serif" font-size="28" x="520.0" y="264.0">62</text><line stroke="black" stroke-linecap="square" stroke-opacity="1.0" stroke-width="2.5" x1="510.0" x2="490.0" y1="295.0" y2="295.0" /><line stroke="black" stroke-linecap="square" stroke-opacity="1.0" stroke-width="2.5" x1="510.0" x2="490.0" y1="233.0" y2="233.0" /><line marker-end="url(#id34)" marker-start="url(#id35)" stroke="black" stroke-linecap="square" stroke-width="2.5" x1="500.0" x2="500.0" y1="445.0" y2="507.0" /><text fill="black" font-family="sans-serif" font-size="28" x="520.0" y="476.0">62</text><line stroke="black" stroke-linecap="square" stroke-opacity="1.0" stroke-width="2.5" x1="510.0" x2="490.0" y1="445.0" y2="445.0" /><line stroke="black" stroke-linecap="square" stroke-opacity="1.0" stroke-width="2.5" x1="510.0" x2="490.0" y1="507.0" y2="507.0" /><line stroke="#D8D8D8" stroke-linecap="square" stroke-opacity="0.7" stroke-width="2.5" x1="20.55" x2="20.55" y1="507.0" y2="874.0" /><line stroke="#D8D8D8" stroke-linecap="square" stroke-opacity="0.7" stroke-width="2.5" x1="229.45" x2="229.45" y1="507.0" y2="874.0" /><line stroke="#D8D8D8" stroke-linecap="square" stroke-opacity="0.7" stroke-width="2.5" x1="192.45" x2="192.45" y1="445.0" y2="924.0" /><line stroke="#D8D8D8" stroke-linecap="square" stroke-opacity="0.7" stroke-width="2.5" x1="57.55" x2="57.55" y1="445.0" y2="924.0" /><line marker-end="url(#id36)" marker-start="url(#id37)" stroke="black" stroke-linecap="square" stroke-width="2.5" x1="20.55" x2="57.55" y1="874.0" y2="874.0" /><text fill="black" font-family="sans-serif" font-size="28" x="39.05" y="909.0">37</text><line stroke="black" stroke-linecap="square" stroke-opacity="1.0" stroke-width="2.5" x1="20.55" x2="20.55" y1="894.0" y2="854.0" /><line stroke="black" stroke-linecap="square" stroke-opacity="1.0" stroke-width="2.5" x1="57.55" x2="57.55" y1="894.0" y2="854.0" /><line marker-end="url(#id38)" marker-start="url(#id39)" stroke="black" stroke-linecap="square" stroke-width="2.5" x1="229.45" x2="192.45" y1="874.0" y2="874.0" /><text fill="black" font-family="sans-serif" font-size="28" x="210.95" y="909.0">37</text><line stroke="black" stroke-linecap="square" stroke-opacity="1.0" stroke-width="2.5" x1="229.45" x2="229.45" y1="894.0" y2="854.0" /><line stroke="black" stroke-linecap="square" stroke-opacity="1.0" stroke-width="2.5" x1="192.45" x2="192.45" y1="894.0" y2="854.0" /><line marker-end="url(#id40)" marker-start="url(#id41)" stroke="black" stroke-linecap="square" stroke-width="2.5" x1="57.55" x2="192.45" y1="924.0" y2="924.0" /><text fill="black" font-family="sans-serif" font-size="28" x="125.0" y="959.0">117</text><line stroke="black" stroke-linecap="square" stroke-opacity="1.0" stroke-width="2.5" x1="57.55" x2="57.55" y1="934.0" y2="914.0" /><line stroke="black" stroke-linecap="square" stroke-opacity="1.0" stroke-width="2.5" x1="192.45" x2="192.45" y1="934.0" y2="914.0" /><line stroke="#D8D8D8" stroke-linecap="square" stroke-opacity="0.7" stroke-width="2.5" x1="110.55" x2="-100.0" y1="233.0" y2="233.0" /><line stroke="#D8D8D8" stroke-linecap="square" stroke-opacity="0.7" stroke-width="2.5" x1="110.55" x2="-100.0" y1="507.0" y2="507.0" /><line stroke="#D8D8D8" stroke-linecap="square" stroke-opacity="0.7" stroke-width="2.5" x1="110.55" x2="-100.0" y1="270.0" y2="270.0" /><line stroke="#D8D8D8" stroke-linecap="square" stroke-opacity="0.7" stroke-width="2.5" x1="110.55" x2="-100.0" y1="470.0" y2="470.0" /><line marker-end="url(#id42)" marker-start="url(#id43)" stroke="black" stroke-linecap="square" stroke-width="2.5" x1="-100.0" x2="-100.0" y1="270.0" y2="470.0" /><text fill="black" font-family="sans-serif" font-size="28" x="-250.0" y="370.0">4@50 c/c</text><line stroke="black" stroke-linecap="square" stroke-opacity="1.0" stroke-width="2.5" x1="-110.0" x2="-90.0" y1="270.0" y2="270.0" /><line stroke="black" stroke-linecap="square" stroke-opacity="1.0" stroke-width="2.5" x1="-110.0" x2="-90.0" y1="470.0" y2="470.0" /><line marker-end="url(#id44)" marker-start="url(#id45)" stroke="black" stroke-linecap="square" stroke-width="2.5" x1="-100.0" x2="-100.0" y1="270.0" y2="233.0" /><text fill="black" font-family="sans-serif" font-size="28" x="-150.0" y="251.5">37</text><line stroke="black" stroke-linecap="square" stroke-opacity="1.0" stroke-width="2.5" x1="-110.0" x2="-90.0" y1="270.0" y2="270.0" /><line stroke="black" stroke-linecap="square" stroke-opacity="1.0" stroke-width="2.5" x1="-110.0" x2="-90.0" y1="233.0" y2="233.0" /><line marker-end="url(#id46)" marker-start="url(#id47)" stroke="black" stroke-linecap="square" stroke-width="2.5" x1="-100.0" x2="-100.0" y1="470.0" y2="507.0" /><text fill="black" font-family="sans-serif" font-size="28" x="-150.0" y="488.5">37</text><line stroke="black" stroke-linecap="square" stroke-opacity="1.0" stroke-width="2.5" x1="-110.0" x2="-90.0" y1="470.0" y2="470.0" /><line stroke="black" stroke-linecap="square" stroke-opacity="1.0" stroke-width="2.5" x1="-110.0" x2="-90.0" y1="507.0" y2="507.0" /><polyline fill="none" marker-start="url(#id48)" points="125,200 125.0,-25.0 333.0,-25.0" stroke="black" stroke-width="2.5" /><text fill="black" font-family="sans-serif" font-size="28" x="145.8" y="-43.0">Beam ISMB 400</text><text fill="black" font-family="sans-serif" font-size="28" x="145.8" y="8.0" /><polyline fill="none" marker-start="url(#id49)" points="0,0 -50.0,-50.0 -290.0,-50.0" stroke="black" stroke-width="2.5" /><text fill="black" font-family="sans-serif" font-size="28" x="-266.0" y="-68.0">Column ISSC 250</text><text fill="black" font-family="sans-serif" font-size="28" x="-314.0" y="-32.0"> </text><polyline fill="none" marker-start="url(#id50)" points="229.45,507.0 466.740960637,644.0 706.740960637,644.0" stroke="black" stroke-width="2.5" /><text fill="black" font-family="sans-serif" font-size="28" x="490.740960637" y="626.0">ISA. 100x100x10</text><text fill="black" font-family="sans-serif" font-size="28" x="490.740960637" y="662.0" /><polyline fill="none" marker-start="url(#id51)" points="110.55,270.0 -84.45,75.0 -452.45,75.0" stroke="black" stroke-width="2.5" /><text fill="black" font-family="sans-serif" font-size="28" x="-415.65" y="57.0">5 nos 20Ø holes</text><text fill="black" font-family="sans-serif" font-size="28" x="-489.25" y="93.0">for M20bolts(grade 8.8)</text><polyline fill="none" marker-start="url(#id52)" points="192.45,295.0 334.45,153.0 702.45,153.0" stroke="black" stroke-width="2.5" /><text fill="black" font-family="sans-serif" font-size="28" x="371.25" y="135.0">8 nos 20Ø holes</text><text fill="black" font-family="sans-serif" font-size="28" x="371.25" y="186.0">for M20bolts(grade 8.8)</text><text fill="black" font-family="sans-serif" font-size="30" x="50" y="1190">Side view (Sec B-B)</text><text fill="black" font-family="sans-serif" font-size="30" x="400" y="1190">(All distances are in "mm")</text></svg>