<?xml version="1.0" encoding="utf-8" ?>
<svg baseProfile="full" height="100%" version="1.1" viewBox="-300 -250 1500 1000" width="100%" xmlns="http://www.w3.org/2000/svg" xmlns:ev="http://www.w3.org/2001/xml-events" xmlns:xlink="http://www.w3.org/1999/xlink"><defs><marker id="id53" markerHeight="10" markerWidth="10" orient="auto" refX="0" refY="5"><path d="M 0 0 L 10 5 L 0 10 z" fill="blue" stroke="black" /></marker><marker id="id54" markerHeight="10" markerWidth="10" orient="auto" refX="0" refY="5"><path d="M 0 0 L 10 5 L 0 10 z" fill="blue" stroke="black" /></marker><marker id="id55" markerHeight="10" markerWidth="10" orient="auto" refX="0" refY="5"><path d="M 0 0 L 10 5 L 0 10 z" fill="blue" stroke="black" /></marker><marker id="id56" markerHeight="10" markerWidth="10" orient="auto" refX="0" refY="5"><path d="M 0 0 L 10 5 L 0 10 z" fill="blue" stroke="black" /></marker><marker id="id57" markerHeight="30" markerWidth="30" orient="auto" refX="8" refY="3"><path d=" M0,0 L3,3 L0,6 L8,3 L0,0" fill="black" /></marker><marker id="id58" markerHeight="20" markerWidth="30" orient="auto" refX="0" refY="3"><path d=" M0,3 L8,6 L5,3 L8,0 L0,3" fill="black" /></marker><marker id="id59" markerHeight="30" markerWidth="30" orient="auto" refX="8" refY="3"><path d=" M0,0 L3,3 L0,6 L8,3 L0,0" fill="black" /></marker><marker id="id60" markerHeight="20" markerWidth="30" orient="auto" refX="0" refY="3"><path d=" M0,3 L8,6 L5,3 L8,0 L0,3" fill="black" /></marker><marker id="id61" markerHeight="30" markerWidth="30" orient="auto" refX="8" refY="3"><path d=" M0,0 L3,3 L0,6 L8,3 L0,0" fill="black" /></marker><marker id="id62" markerHeight="20" markerWidth="30" orient="auto" refX="0" refY="3"><path d=" M0,3 L8,6 L5,3 L8,0 L0,3" fill="black" /></marker><marker id="id63" markerHeight="20" markerWidth="30" orient="auto" refX="0" refY="3"><path d=" M0,3 L8,6 L5,3 L8,0 L0,3" fill="black" /></marker><marker id="id64" markerHeight="20" markerWidth="30" orient="auto" refX="0" refY="3"><path d=" M0,3 L8,6 L5,3 L8,0 L0,3" fill="black" /></marker><marker id="id65" markerHeight="20" markerWidth="30" orient="auto" refX="0" refY="3"><path d=" M0,3 L8,6 L5,3 L8,0 L0,3" fill="black" /></marker><marker id="id66" markerHeight="20" markerWidth="30" orient="auto" refX="0" refY="3"><path d=" M0,3 L8,6 L5,3 L8,0 L0,3" fill="black" /></marker><marker id="id67" markerHeight="20" markerWidth="30" orient="auto" refX="0" refY="3"><path d=" M0,3 L8,6 L5,3 L8,0 L0,3" fill="black" /></marker><marker id="id68" markerHeight="30" markerWidth="30" orient="auto" refX="8" refY="3"><path d=" M0,0 L3,3 L0,6 L8,3 L0,0" fill="black" /></marker><marker id="id69" markerHeight="20" markerWidth="30" orient="auto" refX="0" refY="3"><path d=" M0,3 L8,6 L5,3 L8,0 L0,3" fill="black" /></marker></defs><line marker-end="url(#id53)" stroke="black" stroke-linecap="square" stroke-width="2.5" x1="910" x2="860" y1="0" y2="0" /><text fill="black" font-family="sans-serif" font-size="52" x="780" y="20">B</text><line marker-end="url(#id54)" stroke="black" stroke-linecap="square" stroke-width="2.5" x1="910" x2="860" y1="250" y2="250" /><text fill="black" font-family="sans-serif" font-size="52" x="780" y="270">B</text><line stroke="#666666" stroke-linecap="square" stroke-width="1.0" x1="910" x2="910" y1="0" y2="250" /><line marker-end="url(#id55)" stroke="black" stroke-linecap="square" stroke-width="2.5" x1="-50.0" x2="-50.0" y1="500.0" y2="450.0" /><text fill="black" font-family="sans-serif" font-size="52" x="-70.0" y="410.0">C</text><line marker-end="url(#id56)" stroke="black" stroke-linecap="square" stroke-width="2.5" x1="670.0" x2="670.0" y1="500.0" y2="450.0" /><text fill="black" font-family="sans-serif" font-size="52" x="650.0" y="410.0">C</text><line stroke="#666666" stroke-linecap="square" stroke-width="1.0" x1="-50.0" x2="670.0" y1="500.0" y2="500.0" /><polyline fill="none" points="0,0 17.0,0.0 17.0,120.0 233.0,120.0 233.0,0.0 250,0 250,250 233.0,250.0 233.0,130.0 17.0,130.0 17.0,250.0 0.0,250.0 0,0" stroke="blue" stroke-width="2.5" /><rect fill="none" height="140" stroke="blue" stroke-width="2.5" width="350" x="270.0" y="55.0" /><line stroke="red" stroke-dasharray="5 5" stroke-linecap="square" stroke-width="2.5" x1="270.0" x2="620.0" y1="120.55" y2="120.55" /><line stroke="red" stroke-dasharray="5 5" stroke-linecap="square" stroke-width="2.5" x1="270.0" x2="620.0" y1="129.45" y2="129.45" /><line stroke="blue" stroke-linecap="square" stroke-width="2.5" x1="250.0" x2="270.0" y1="129.45" y2="129.45" /><polyline fill="none" points="270.0,129.45 350.0,129.45 350.0,139.45 270.0,139.45" stroke="red" stroke-dasharray="5 5" stroke-width="2.5" /><polyline fill="none" points="270.0,139.45 260.0,139.45 260.0,229.45 250.0,229.45" stroke="blue" stroke-width="2.5" /><line stroke="blue" stroke-linecap="square" stroke-width="2.5" x1="250.0" x2="270.0" y1="120.55" y2="120.55" /><polyline fill="none" points="270.0,120.55 350.0,120.55 350.0,110.55 270.0,110.55" stroke="red" stroke-dasharray="5 5" stroke-width="2.5" /><polyline fill="none" points="270.0,110.55 260.0,110.55 260.0,20.55 250.0,20.55" stroke="blue" stroke-width="2.5" /><rect fill="black" height="28.9" stroke="black" stroke-width="2.5" width="20" x="303.0" y="110.55" /><line stroke="black" stroke-linecap="square" stroke-width="2.5" x1="313.0" x2="313.0" y1="100.55" y2="149.45" /><rect fill="black" height="20" stroke="black" stroke-width="2.5" width="27.0" x="233.0" y="47.55" /><line stroke="black" stroke-linecap="square" stroke-width="2.5" x1="223.0" x2="270.0" y1="57.55" y2="57.55" /><rect fill="black" height="20" stroke="black" stroke-width="2.5" width="27.0" x="233.0" y="182.45" /><line stroke="black" stroke-linecap="square" stroke-width="2.5" x1="223.0" x2="271.9" y1="192.45" y2="192.45" /><line stroke="#D8D8D8" stroke-linecap="square" stroke-opacity="0.7" stroke-width="2.5" x1="250.0" x2="-47.0" y1="20.55" y2="20.55" /><line stroke="#D8D8D8" stroke-linecap="square" stroke-opacity="0.7" stroke-width="2.5" x1="233.0" x2="-47.0" y1="57.55" y2="57.55" /><line marker-end="url(#id57)" marker-start="url(#id58)" stroke="black" stroke-linecap="square" stroke-width="2.5" x1="-47.0" x2="-47.0" y1="20.55" y2="57.55" /><text fill="black" font-family="sans-serif" font-size="28" x="-147.0" y="39.05">37</text><line stroke="black" stroke-linecap="square" stroke-opacity="1.0" stroke-width="2.5" x1="-57.0" x2="-37.0" y1="20.55" y2="20.55" /><line stroke="black" stroke-linecap="square" stroke-opacity="1.0" stroke-width="2.5" x1="-57.0" x2="-37.0" y1="57.55" y2="57.55" /><line stroke="#D8D8D8" stroke-linecap="square" stroke-opacity="0.7" stroke-width="2.5" x1="250.0" x2="-47.0" y1="229.45" y2="229.45" /><line stroke="#D8D8D8" stroke-linecap="square" stroke-opacity="0.7" stroke-width="2.5" x1="233.0" x2="-47.0" y1="192.45" y2="192.45" /><line marker-end="url(#id59)" marker-start="url(#id60)" stroke="black" stroke-linecap="square" stroke-width="2.5" x1="-47.0" x2="-47.0" y1="229.45" y2="192.45" /><text fill="black" font-family="sans-serif" font-size="28" x="-147.0" y="210.95">37</text><line stroke="black" stroke-linecap="square" stroke-opacity="1.0" stroke-width="2.5" x1="-57.0" x2="-37.0" y1="229.45" y2="229.45" /><line stroke="black" stroke-linecap="square" stroke-opacity="1.0" stroke-width="2.5" x1="-57.0" x2="-37.0" y1="192.45" y2="192.45" /><line stroke="#D8D8D8" stroke-linecap="square" stroke-opacity="0.7" stroke-width="2.5" x1="313.0" x2="313.0" y1="110.55" y2="-149.45" /><line stroke="#D8D8D8" stroke-linecap="square" stroke-opacity="0.7" stroke-width="2.5" x1="350.0" x2="350.0" y1="110.55" y2="-149.45" /><line marker-end="url(#id61)" marker-start="url(#id62)" stroke="black" stroke-linecap="square" stroke-width="2.5" x1="313.0" x2="350.0" y1="-149.45" y2="-149.45" /><text fill="black" font-family="sans-serif" font-size="28" x="331.5" y="-159.45">37</text><line stroke="black" stroke-linecap="square" stroke-opacity="1.0" stroke-width="2.5" x1="313.0" x2="313.0" y1="-159.45" y2="-139.45" /><line stroke="black" stroke-linecap="square" stroke-opacity="1.0" stroke-width="2.5" x1="350.0" x2="350.0" y1="-159.45" y2="-139.45" /><polyline fill="none" marker-start="url(#id63)" points="620.0,129.45 620.0,129.45 828.0,129.45" stroke="black" stroke-width="2.5" /><text fill="black" font-family="sans-serif" font-size="28" x="640.8" y="111.45">Beam ISMB 400</text><text fill="black" font-family="sans-serif" font-size="28" x="640.8" y="147.45" /><polyline fill="none" marker-start="url(#id64)" points="0.0,250.0 150.0,400.0 390.0,400.0" stroke="black" stroke-width="2.5" /><text fill="black" font-family="sans-serif" font-size="28" x="174.0" y="382.0">Column ISSC 250</text><text fill="black" font-family="sans-serif" font-size="28" x="174.0" y="418.0" /><polyline fill="none" marker-start="url(#id65)" points="350.0,139.45 470.0,259.45 710.0,259.45" stroke="black" stroke-width="2.5" /><text fill="black" font-family="sans-serif" font-size="28" x="494.0" y="241.45">ISA. 100x100x10</text><text fill="black" font-family="sans-serif" font-size="28" x="494.0" y="277.45" /><polyline fill="none" marker-start="url(#id66)" points="313.0,110.55 503.0,-79.45 871.0,-79.45" stroke="black" stroke-width="2.5" /><text fill="black" font-family="sans-serif" font-size="28" x="539.8" y="-97.45">5 nos 20Ø holes</text><text fill="black" font-family="sans-serif" font-size="28" x="539.8" y="-46.45">for M20bolts(grade 8.8)</text><polyline fill="none" marker-start="url(#id67)" points="233.0,57.55 72.1132649998,-77.45 -295.886735,-77.45" stroke="black" stroke-width="2.5" /><text fill="black" font-family="sans-serif" font-size="28" x="-259.086735" y="-95.45">8 nos 20Ø holes</text><text fill="black" font-family="sans-serif" font-size="28" x="-332.686735" y="-59.45">for M20bolts(grade 8.8)</text><line stroke="black" stroke-linecap="square" stroke-width="2.5" x1="250.0" x2="250.0" y1="310.0" y2="310.0" /><line stroke="black" stroke-linecap="square" stroke-width="2.5" x1="270.0" x2="270.0" y1="310.0" y2="310.0" /><line marker-end="url(#id68)" stroke="black" stroke-linecap="square" stroke-width="2.5" x1="200.0" x2="250" y1="300.0" y2="300" /><line marker-end="url(#id68)" stroke="black" stroke-linecap="butt" stroke-width="2.5" x1="320.0" x2="270" y1="300.0" y2="300" /><text fill="black" font-family="sans-serif" font-size="28" x="330.0" y="300.0">20 mm</text><line stroke="#D8D8D8" stroke-linecap="square" stroke-opacity="0.7" stroke-width="2.5" x1="250" x2="250" y1="250" y2="300" /><line stroke="#D8D8D8" stroke-linecap="square" stroke-opacity="0.7" stroke-width="2.5" x1="270.0" x2="270.0" y1="195.0" y2="250.0" /><text fill="black" font-family="sans-serif" font-size="30" x="250" y="740">Top view (Sec A-A)</text><text fill="black" font-family="sans-serif" font-size="30" x="600" y="740">(All distances are in "mm")</text></svg>