<?xml version="1.0" encoding="utf-8" ?>
<svg baseProfile="full" height="100%" version="1.1" viewBox="-200 -250 1200 900" width="100%" xmlns="http://www.w3.org/2000/svg" xmlns:ev="http://www.w3.org/2001/xml-events" xmlns:xlink="http://www.w3.org/1999/xlink"><defs><marker id="id53" markerHeight="10" markerWidth="10" orient="auto" refX="0" refY="5"><path d="M 0 0 L 10 5 L 0 10 z" fill="blue" stroke="black" /></marker><marker id="id54" markerHeight="10" markerWidth="10" orient="auto" refX="0" refY="5"><path d="M 0 0 L 10 5 L 0 10 z" fill="blue" stroke="black" /></marker><marker id="id55" markerHeight="10" markerWidth="10" orient="auto" refX="0" refY="5"><path d="M 0 0 L 10 5 L 0 10 z" fill="blue" stroke="black" /></marker><marker id="id56" markerHeight="10" markerWidth="10" orient="auto" refX="0" refY="5"><path d="M 0 0 L 10 5 L 0 10 z" fill="blue" stroke="black" /></marker><marker id="id57" markerHeight="30" markerWidth="30" orient="auto" refX="8" refY="3"><path d=" M0,0 L3,3 L0,6 L8,3 L0,0" fill="black" /></marker><marker id="id58" markerHeight="20" markerWidth="30" orient="auto" refX="0" refY="3"><path d=" M0,3 L8,6 L5,3 L8,0 L0,3" fill="black" /></marker><marker id="id59" markerHeight="30" markerWidth="30" orient="auto" refX="8" refY="3"><path d=" M0,0 L3,3 L0,6 L8,3 L0,0" fill="black" /></marker><marker id="id60" markerHeight="20" markerWidth="30" orient="auto" refX="0" refY="3"><path d=" M0,3 L8,6 L5,3 L8,0 L0,3" fill="black" /></marker><marker id="id61" markerHeight="30" markerWidth="30" orient="auto" refX="8" refY="3"><path d=" M0,0 L3,3 L0,6 L8,3 L0,0" fill="black" /></marker><marker id="id62" markerHeight="20" markerWidth="30" orient="auto" refX="0" refY="3"><path d=" M0,3 L8,6 L5,3 L8,0 L0,3" fill="black" /></marker><marker id="id63" markerHeight="20" markerWidth="30" orient="auto" refX="0" refY="3"><path d=" M0,3 L8,6 L5,3 L8,0 L0,3" fill="black" /></marker><marker id="id64" markerHeight="20" markerWidth="30" orient="auto" refX="0" refY="3"><path d=" M0,3 L8,6 L5,3 L8,0 L0,3" fill="black" /></marker><marker id="id65" markerHeight="20" markerWidth="30" orient="auto" refX="0" refY="3"><path d=" M0,3 L8,6 L5,3 L8,0 L0,3" fill="black" /></marker><marker id="id66" markerHeight="20" markerWidth="30" orient="auto" refX="0" refY="3"><path d=" M0,3 L8,6 L5,3 L8,0 L0,3" fill="black" /></marker><marker id="id67" markerHeight="20" markerWidth="30" orient="auto" refX="0" refY="3"><path d=" M0,3 L8,6 L5,3 L8,0 L0,3" fill="black" /></marker><marker id="id68" markerHeight="30" markerWidth="30" orient="auto" refX="8" refY="3"><path d=" M0,0 L3,3 L0,6 L8,3 L0,0" fill="black" /></marker><marker id="id69" markerHeight="20" markerWidth="30" orient="auto" refX="0" refY="3"><path d=" M0,3 L8,6 L5,3 L8,0 L0,3" fill="black" /></marker></defs><line marker-end="url(#id53)" stroke="black" stroke-linecap="square" stroke-width="2.5" x1="860" x2="810" y1="0" y2="0" /><text fill="black" font-family="sans-serif" font-size="52" x="730" y="20">B</text><line marker-end="url(#id54)" stroke="black" stroke-linecap="square" stroke-width="2.5" x1="860" x2="810" y1="380" y2="380" /><text fill="black" font-family="sans-serif" font-size="52" x="730" y="400">B</text><line stroke="#666666" stroke-linecap="square" stroke-width="1.0" x1="860" x2="860" y1="0" y2="380" /><line marker-end="url(#id55)" stroke="black" stroke-linecap="square" stroke-width="2.5" x1="-50.0" x2="-50.0" y1="502.0" y2="452.0" /><text fill="black" font-family="sans-serif" font-size="52" x="-70.0" y="412.0">C</text><line marker-end="url(#id56)" stroke="black" stroke-linecap="square" stroke-width="2.5" x1="560.0" x2="560.0" y1="502.0" y2="452.0" /><text fill="black" font-family="sans-serif" font-size="52" x="540.0" y="412.0">C</text><line stroke="#666666" stroke-linecap="square" stroke-width="1.0" x1="-50.0" x2="560.0" y1="502.0" y2="502.0" /><polyline fill="none" points="0,0 190,0 190,380 0,380 0,0" stroke="blue" stroke-width="2.5" /><line stroke="red" stroke-dasharray="5 5" stroke-linecap="square" stroke-width="2.5" x1="89.4" x2="89.4" y1="0.0" y2="380.0" /><line stroke="red" stroke-dasharray="5 5" stroke-linecap="square" stroke-width="2.5" x1="100.6" x2="100.6" y1="0.0" y2="380.0" /><polyline fill="none" points="190,100 120.6,100.0 120.6,280.0 190,280" stroke="red" stroke-dasharray="5 5" stroke-width="2.5" /><polyline fill="none" points="190,100 200,100 470.6,100.0 470.6,280.0 200,280 190,280" stroke="blue" stroke-width="2.5" /><line stroke="blue" stroke-linecap="square" stroke-width="2.5" x1="200" x2="200" y1="100" y2="280" /><line stroke="red" stroke-dasharray="5 5" stroke-linecap="square" stroke-width="2.5" x1="120.6" x2="190.0" y1="184.9" y2="184.9" /><line stroke="red" stroke-dasharray="5 5" stroke-linecap="square" stroke-width="2.5" x1="120.6" x2="190.0" y1="195.1" y2="195.1" /><line stroke="blue" stroke-linecap="square" stroke-width="2.5" x1="190.0" x2="200.0" y1="184.9" y2="184.9" /><line stroke="blue" stroke-linecap="square" stroke-width="2.5" x1="190.0" x2="200.0" y1="195.1" y2="195.1" /><line stroke="red" stroke-dasharray="5 5" stroke-linecap="square" stroke-width="2.5" x1="200.0" x2="470.6" y1="184.9" y2="184.9" /><line stroke="red" stroke-dasharray="5 5" stroke-linecap="square" stroke-width="2.5" x1="200.0" x2="470.6" y1="195.1" y2="195.1" /><polyline fill="none" points="100.6,84.9 110.6,84.9 110.6,174.9 200.6,174.9 200.6,184.9 100.6,184.9 100.6,84.9" stroke="red" stroke-dasharray="5 5" stroke-width="2.5" /><polyline fill="none" points="100.6,295.1 110.6,295.1 110.6,205.1 200.6,205.1 200.6,195.1 100.6,195.1 100.6,295.1" stroke="red" stroke-dasharray="5 5" stroke-width="2.5" /><rect fill="black" height="30.2" stroke="black" stroke-width="2.5" width="16" x="162.6" y="174.9" /><line stroke="black" stroke-linecap="square" stroke-width="2.5" x1="170.6" x2="170.6" y1="164.9" y2="215.1" /><rect fill="black" height="16" stroke="black" stroke-width="2.5" width="21.2" x="89.4" y="112.0" /><line stroke="black" stroke-linecap="square" stroke-width="2.5" x1="79.4" x2="120.6" y1="120.0" y2="120.0" /><rect fill="black" height="16" stroke="black" stroke-width="2.5" width="21.2" x="89.4" y="252.0" /><line stroke="black" stroke-linecap="square" stroke-width="2.5" x1="79.4" x2="129.6" y1="260.0" y2="260.0" /><line stroke="#D8D8D8" stroke-linecap="square" stroke-opacity="0.7" stroke-width="2.5" x1="100.6" x2="-104.05" y1="84.9" y2="84.9" /><line stroke="#D8D8D8" stroke-linecap="square" stroke-opacity="0.7" stroke-width="2.5" x1="89.4" x2="-105.6" y1="120.0" y2="120.0" /><line marker-end="url(#id57)" marker-start="url(#id58)" stroke="black" stroke-linecap="square" stroke-width="2.5" x1="-105.6" x2="-105.6" y1="84.9" y2="120.0" /><text fill="black" font-family="sans-serif" font-size="28" x="-155.6" y="102.45">35</text><line stroke="black" stroke-linecap="square" stroke-opacity="1.0" stroke-width="2.5" x1="-115.6" x2="-95.6" y1="84.9" y2="84.9" /><line stroke="black" stroke-linecap="square" stroke-opacity="1.0" stroke-width="2.5" x1="-115.6" x2="-95.6" y1="120.0" y2="120.0" /><line stroke="#D8D8D8" stroke-linecap="square" stroke-opacity="0.7" stroke-width="2.5" x1="100.6" x2="-104.05" y1="295.1" y2="295.1" /><line stroke="#D8D8D8" stroke-linecap="square" stroke-opacity="0.7" stroke-width="2.5" x1="89.4" x2="-105.6" y1="260.0" y2="260.0" /><line marker-end="url(#id59)" marker-start="url(#id60)" stroke="black" stroke-linecap="square" stroke-width="2.5" x1="-105.6" x2="-105.6" y1="295.1" y2="260.0" /><text fill="black" font-family="sans-serif" font-size="28" x="-155.6" y="277.55">35</text><line stroke="black" stroke-linecap="square" stroke-opacity="1.0" stroke-width="2.5" x1="-115.6" x2="-95.6" y1="295.1" y2="295.1" /><line stroke="black" stroke-linecap="square" stroke-opacity="1.0" stroke-width="2.5" x1="-115.6" x2="-95.6" y1="260.0" y2="260.0" /><line stroke="#D8D8D8" stroke-linecap="square" stroke-opacity="0.7" stroke-width="2.5" x1="170.6" x2="170.6" y1="174.9" y2="-40.1" /><line stroke="#D8D8D8" stroke-linecap="square" stroke-opacity="0.7" stroke-width="2.5" x1="200.6" x2="200.6" y1="174.9" y2="-40.1" /><line marker-end="url(#id61)" marker-start="url(#id62)" stroke="black" stroke-linecap="square" stroke-width="2.5" x1="170.6" x2="200.6" y1="-40.1" y2="-40.1" /><text fill="black" font-family="sans-serif" font-size="28" x="185.6" y="-50.1">30</text><line stroke="black" stroke-linecap="square" stroke-opacity="1.0" stroke-width="2.5" x1="170.6" x2="170.6" y1="-50.1" y2="-30.1" /><line stroke="black" stroke-linecap="square" stroke-opacity="1.0" stroke-width="2.5" x1="200.6" x2="200.6" y1="-50.1" y2="-30.1" /><polyline fill="none" marker-start="url(#id63)" points="470.6,190.0 470.6,190.0 678.6,190.0" stroke="black" stroke-width="2.5" /><text fill="black" font-family="sans-serif" font-size="28" x="491.4" y="172.0">Beam ISMB 500</text><text fill="black" font-family="sans-serif" font-size="28" x="491.4" y="208.0" /><polyline fill="none" marker-start="url(#id64)" points="95,0 95.0,-150.0 303.0,-150.0" stroke="black" stroke-width="2.5" /><text fill="black" font-family="sans-serif" font-size="28" x="115.8" y="-168.0">Beam ISMB 550</text><text fill="black" font-family="sans-serif" font-size="28" x="115.8" y="-117.0" /><polyline fill="none" marker-start="url(#id65)" points="200.6,174.9 367.445502963,34.9 607.445502963,34.9" stroke="black" stroke-width="2.5" /><text fill="black" font-family="sans-serif" font-size="28" x="391.445502963" y="16.9">ISA. 100x100x10</text><text fill="black" font-family="sans-serif" font-size="28" x="391.445502963" y="67.9" /><polyline fill="none" marker-start="url(#id66)" points="170.6,174.9 450.6,-105.1 834.6,-105.1" stroke="black" stroke-width="2.5" /><text fill="black" font-family="sans-serif" font-size="28" x="489.0" y="-123.1">6 nos 16Ø holes</text><text fill="black" font-family="sans-serif" font-size="28" x="489.0" y="-72.1">for M16bolts(grade 12.9)</text><polyline fill="none" marker-start="url(#id67)" points="89.4,260.0 288.58584287,375.0 672.58584287,375.0" stroke="black" stroke-width="2.5" /><text fill="black" font-family="sans-serif" font-size="28" x="326.98584287" y="357.0">8 nos 16Ø holes</text><text fill="black" font-family="sans-serif" font-size="28" x="326.98584287" y="393.0">for M16bolts(grade 12.9)</text><line stroke="black" stroke-linecap="square" stroke-width="2.5" x1="190.0" x2="190.0" y1="490.0" y2="490.0" /><line stroke="black" stroke-linecap="square" stroke-width="2.5" x1="210.0" x2="210.0" y1="490.0" y2="490.0" /><line marker-end="url(#id68)" stroke="black" stroke-linecap="square" stroke-width="2.5" x1="140.0" x2="190" y1="480.0" y2="480" /><line marker-end="url(#id68)" stroke="black" stroke-linecap="butt" stroke-width="2.5" x1="260.0" x2="210" y1="480.0" y2="480" /><text fill="black" font-family="sans-serif" font-size="28" x="270.0" y="480.0">20</text><line stroke="#D8D8D8" stroke-linecap="square" stroke-opacity="0.7" stroke-width="2.5" x1="190" x2="190" y1="380" y2="480" /><line stroke="#D8D8D8" stroke-linecap="square" stroke-opacity="0.7" stroke-width="2.5" x1="200" x2="200" y1="280" y2="465" /><text fill="black" font-family="sans-serif" font-size="30" x="150" y="640">Top view (Sec A-A)</text><text fill="black" font-family="sans-serif" font-size="30" x="500" y="640">(All distances are in "mm")</text></svg>