<?xml version="1.0" encoding="utf-8" ?>
<svg baseProfile="full" height="100%" version="1.1" width="100%" xmlns="http://www.w3.org/2000/svg" xmlns:ev="http://www.w3.org/2001/xml-events" xmlns:xlink="http://www.w3.org/1999/xlink"><defs /><polyline fill="none" points="0,0 225,0.0 225,1000 0.0,1000 0,0" stroke="blue" stroke-width="2.5" /><line stroke="blue" stroke-linecap="square" stroke-width="2.5" x1="9.1" x2="9.1" y1="0.0" y2="1000" /><line stroke="blue" stroke-linecap="square" stroke-width="2.5" x1="215.9" x2="215.9" y1="0.0" y2="1000" /><polyline fill="none" points="245,333.0 245,300 745,300 745,700 245,700 245,633.0" stroke="blue" stroke-width="2.5" /><line stroke="red" stroke-dasharray="5 5" stroke-linecap="square" stroke-width="2.5" x1="245" x2="245" y1="333.0" y2="633.0" /><line stroke="blue" stroke-linecap="square" stroke-width="2.5" x1="245" x2="745" y1="316.0" y2="316.0" /><line stroke="blue" stroke-linecap="square" stroke-width="2.5" x1="245" x2="745" y1="684.0" y2="684.0" /><rect fill="none" height="300" stroke="blue" stroke-width="2.5" width="90" x="225" y="333.0" /><rect fill="none" height="300" stroke="blue" stroke-width="2.5" width="90" x="225" y="333.0" /><rect fill="none" height="300" stroke="blue" stroke-width="2.0" width="8" x="225" y="333.0" /><circle cx="265.0" cy="373.0" fill="none" r="10" stroke="blue" stroke-width="1.5" /><line stroke="red" stroke-linecap="square" stroke-width="2.0" x1="251.0" x2="279.0" y1="373.0" y2="373.0" /><line stroke="blue" stroke-dasharray="20 5 1 5" stroke-linecap="square" stroke-width="1.5" x1="265.0" x2="265.0" y1="333.0" y2="633.0" /><circle cx="265.0" cy="443.0" fill="none" r="10" stroke="blue" stroke-width="1.5" /><line stroke="red" stroke-linecap="square" stroke-width="2.0" x1="251.0" x2="279.0" y1="443.0" y2="443.0" /><line stroke="blue" stroke-dasharray="20 5 1 5" stroke-linecap="square" stroke-width="1.5" x1="265.0" x2="265.0" y1="333.0" y2="633.0" /><circle cx="265.0" cy="513.0" fill="none" r="10" stroke="blue" stroke-width="1.5" /><line stroke="red" stroke-linecap="square" stroke-width="2.0" x1="251.0" x2="279.0" y1="513.0" y2="513.0" /><line stroke="blue" stroke-dasharray="20 5 1 5" stroke-linecap="square" stroke-width="1.5" x1="265.0" x2="265.0" y1="333.0" y2="633.0" /></svg>